<mxfile host="app.diagrams.net" modified="2022-07-12T13:46:21.481Z" agent="5.0 (Windows NT 10.0; Win64; x64) AppleWebKit/537.36 (KHTML, like Gecko) Chrome/103.0.0.0 Safari/537.36" etag="dd9cWNw6RN3sItBv2Xid" version="20.0.4" type="github">
  <diagram id="UTL9oAtbc97huWoyyTnZ" name="Page-1">
    <mxGraphModel dx="2644" dy="1097" grid="1" gridSize="10" guides="1" tooltips="1" connect="1" arrows="1" fold="1" page="1" pageScale="1" pageWidth="850" pageHeight="1100" math="0" shadow="0">
      <root>
        <mxCell id="0" />
        <mxCell id="1" parent="0" />
        <UserObject label="Empire Object" link="https://github.com/empire-ai/EmpireNode/blob/main/empire/Empire_Object.py" id="6gGuHzRQzGazjfxGGEVp-71">
          <mxCell style="rounded=0;whiteSpace=wrap;html=1;sketch=1;fontFamily=Architects Daughter;fontSource=https%3A%2F%2Ffonts.googleapis.com%2Fcss%3Ffamily%3DArchitects%2BDaughter;" parent="1" vertex="1">
            <mxGeometry x="110" y="220" width="120" height="30" as="geometry" />
          </mxCell>
        </UserObject>
        <mxCell id="6gGuHzRQzGazjfxGGEVp-72" value="name" style="rounded=0;whiteSpace=wrap;html=1;sketch=1;fontFamily=Architects Daughter;fontSource=https%3A%2F%2Ffonts.googleapis.com%2Fcss%3Ffamily%3DArchitects%2BDaughter;" parent="1" vertex="1">
          <mxGeometry x="150" y="260" width="80" height="30" as="geometry" />
        </mxCell>
        <mxCell id="glC73n-N2dMUQhjcY6fc-61" style="edgeStyle=orthogonalEdgeStyle;rounded=1;sketch=1;jumpStyle=none;orthogonalLoop=1;jettySize=auto;html=1;entryX=0;entryY=0.5;entryDx=0;entryDy=0;endArrow=none;endFill=0;" parent="1" source="6gGuHzRQzGazjfxGGEVp-73" target="glC73n-N2dMUQhjcY6fc-62" edge="1">
          <mxGeometry relative="1" as="geometry">
            <mxPoint x="470" y="335" as="targetPoint" />
          </mxGeometry>
        </mxCell>
        <mxCell id="6gGuHzRQzGazjfxGGEVp-73" value="STRING" style="rounded=0;whiteSpace=wrap;html=1;sketch=1;fontFamily=Architects Daughter;fontSource=https%3A%2F%2Ffonts.googleapis.com%2Fcss%3Ffamily%3DArchitects%2BDaughter;fillColor=#dae8fc;strokeColor=#6c8ebf;" parent="1" vertex="1">
          <mxGeometry x="230" y="260" width="80" height="30" as="geometry" />
        </mxCell>
        <mxCell id="6gGuHzRQzGazjfxGGEVp-85" style="edgeStyle=orthogonalEdgeStyle;rounded=0;sketch=1;orthogonalLoop=1;jettySize=auto;html=1;" parent="1" source="6gGuHzRQzGazjfxGGEVp-74" target="6gGuHzRQzGazjfxGGEVp-76" edge="1">
          <mxGeometry relative="1" as="geometry" />
        </mxCell>
        <mxCell id="6gGuHzRQzGazjfxGGEVp-235" style="edgeStyle=orthogonalEdgeStyle;rounded=0;sketch=1;orthogonalLoop=1;jettySize=auto;html=1;entryX=0.5;entryY=0;entryDx=0;entryDy=0;fontFamily=Architects Daughter;fontSource=https%3A%2F%2Ffonts.googleapis.com%2Fcss%3Ffamily%3DArchitects%2BDaughter;fontSize=10;startArrow=none;startFill=0;endArrow=none;endFill=0;strokeColor=#000000;" parent="1" source="6gGuHzRQzGazjfxGGEVp-74" target="6gGuHzRQzGazjfxGGEVp-89" edge="1">
          <mxGeometry relative="1" as="geometry" />
        </mxCell>
        <mxCell id="6gGuHzRQzGazjfxGGEVp-74" value="Empire Object" style="rounded=0;whiteSpace=wrap;html=1;sketch=1;fontFamily=Architects Daughter;fontSource=https%3A%2F%2Ffonts.googleapis.com%2Fcss%3Ffamily%3DArchitects%2BDaughter;" parent="1" vertex="1">
          <mxGeometry x="-360" y="840" width="120" height="30" as="geometry" />
        </mxCell>
        <mxCell id="6gGuHzRQzGazjfxGGEVp-90" style="edgeStyle=orthogonalEdgeStyle;rounded=0;sketch=1;orthogonalLoop=1;jettySize=auto;html=1;entryX=0.5;entryY=0;entryDx=0;entryDy=0;" parent="1" source="6gGuHzRQzGazjfxGGEVp-75" target="6gGuHzRQzGazjfxGGEVp-89" edge="1">
          <mxGeometry relative="1" as="geometry">
            <Array as="points">
              <mxPoint x="-800" y="950" />
              <mxPoint x="-360" y="950" />
            </Array>
          </mxGeometry>
        </mxCell>
        <mxCell id="6gGuHzRQzGazjfxGGEVp-92" style="edgeStyle=orthogonalEdgeStyle;rounded=0;sketch=1;orthogonalLoop=1;jettySize=auto;html=1;entryX=0.5;entryY=0;entryDx=0;entryDy=0;" parent="1" source="6gGuHzRQzGazjfxGGEVp-75" target="6gGuHzRQzGazjfxGGEVp-91" edge="1">
          <mxGeometry relative="1" as="geometry">
            <Array as="points">
              <mxPoint x="-800" y="950" />
              <mxPoint x="-490" y="950" />
            </Array>
          </mxGeometry>
        </mxCell>
        <mxCell id="6gGuHzRQzGazjfxGGEVp-94" style="edgeStyle=orthogonalEdgeStyle;rounded=0;sketch=1;orthogonalLoop=1;jettySize=auto;html=1;" parent="1" source="6gGuHzRQzGazjfxGGEVp-75" target="6gGuHzRQzGazjfxGGEVp-93" edge="1">
          <mxGeometry relative="1" as="geometry">
            <Array as="points">
              <mxPoint x="-800" y="950" />
              <mxPoint x="-620" y="950" />
            </Array>
          </mxGeometry>
        </mxCell>
        <mxCell id="6gGuHzRQzGazjfxGGEVp-75" value="Node" style="rounded=0;whiteSpace=wrap;html=1;sketch=1;fontFamily=Architects Daughter;fontSource=https%3A%2F%2Ffonts.googleapis.com%2Fcss%3Ffamily%3DArchitects%2BDaughter;" parent="1" vertex="1">
          <mxGeometry x="-820" y="970" width="120" height="30" as="geometry" />
        </mxCell>
        <mxCell id="6gGuHzRQzGazjfxGGEVp-86" style="edgeStyle=orthogonalEdgeStyle;rounded=0;sketch=1;orthogonalLoop=1;jettySize=auto;html=1;" parent="1" source="6gGuHzRQzGazjfxGGEVp-76" target="6gGuHzRQzGazjfxGGEVp-77" edge="1">
          <mxGeometry relative="1" as="geometry" />
        </mxCell>
        <mxCell id="6gGuHzRQzGazjfxGGEVp-88" style="edgeStyle=orthogonalEdgeStyle;rounded=0;sketch=1;orthogonalLoop=1;jettySize=auto;html=1;entryX=0.5;entryY=0;entryDx=0;entryDy=0;" parent="1" source="6gGuHzRQzGazjfxGGEVp-76" target="6gGuHzRQzGazjfxGGEVp-87" edge="1">
          <mxGeometry relative="1" as="geometry">
            <Array as="points">
              <mxPoint x="-230" y="950" />
              <mxPoint x="-100" y="950" />
            </Array>
          </mxGeometry>
        </mxCell>
        <mxCell id="6gGuHzRQzGazjfxGGEVp-76" value="Property" style="rounded=0;whiteSpace=wrap;html=1;sketch=1;fontFamily=Architects Daughter;fontSource=https%3A%2F%2Ffonts.googleapis.com%2Fcss%3Ffamily%3DArchitects%2BDaughter;" parent="1" vertex="1">
          <mxGeometry x="-290" y="900" width="120" height="30" as="geometry" />
        </mxCell>
        <mxCell id="6gGuHzRQzGazjfxGGEVp-77" value="Intensity" style="rounded=0;whiteSpace=wrap;html=1;sketch=1;fontFamily=Architects Daughter;fontSource=https%3A%2F%2Ffonts.googleapis.com%2Fcss%3Ffamily%3DArchitects%2BDaughter;" parent="1" vertex="1">
          <mxGeometry x="-290" y="970" width="120" height="30" as="geometry" />
        </mxCell>
        <mxCell id="6gGuHzRQzGazjfxGGEVp-79" value="copy" style="rounded=0;whiteSpace=wrap;html=1;sketch=1;fontFamily=Architects Daughter;fontSource=https%3A%2F%2Ffonts.googleapis.com%2Fcss%3Ffamily%3DArchitects%2BDaughter;" parent="1" vertex="1">
          <mxGeometry x="150" y="290" width="80" height="30" as="geometry" />
        </mxCell>
        <mxCell id="glC73n-N2dMUQhjcY6fc-60" style="edgeStyle=orthogonalEdgeStyle;rounded=1;sketch=1;jumpStyle=none;orthogonalLoop=1;jettySize=auto;html=1;entryX=0;entryY=0.5;entryDx=0;entryDy=0;endArrow=none;endFill=0;" parent="1" source="6gGuHzRQzGazjfxGGEVp-81" target="glC73n-N2dMUQhjcY6fc-62" edge="1">
          <mxGeometry relative="1" as="geometry">
            <mxPoint x="470" y="335" as="targetPoint" />
          </mxGeometry>
        </mxCell>
        <mxCell id="6gGuHzRQzGazjfxGGEVp-81" value="function" style="rounded=0;whiteSpace=wrap;html=1;sketch=1;fontFamily=Architects Daughter;fontSource=https%3A%2F%2Ffonts.googleapis.com%2Fcss%3Ffamily%3DArchitects%2BDaughter;fillColor=#d5e8d4;strokeColor=#82b366;fillStyle=solid;" parent="1" vertex="1">
          <mxGeometry x="230" y="290" width="80" height="30" as="geometry" />
        </mxCell>
        <mxCell id="6gGuHzRQzGazjfxGGEVp-82" value="__repr__" style="rounded=0;whiteSpace=wrap;html=1;sketch=1;fontFamily=Architects Daughter;fontSource=https%3A%2F%2Ffonts.googleapis.com%2Fcss%3Ffamily%3DArchitects%2BDaughter;" parent="1" vertex="1">
          <mxGeometry x="150" y="320" width="80" height="30" as="geometry" />
        </mxCell>
        <mxCell id="6gGuHzRQzGazjfxGGEVp-137" style="edgeStyle=orthogonalEdgeStyle;rounded=0;sketch=1;orthogonalLoop=1;jettySize=auto;html=1;entryX=0;entryY=0.5;entryDx=0;entryDy=0;" parent="1" source="6gGuHzRQzGazjfxGGEVp-83" edge="1">
          <mxGeometry relative="1" as="geometry">
            <mxPoint x="470" y="335" as="targetPoint" />
          </mxGeometry>
        </mxCell>
        <mxCell id="6gGuHzRQzGazjfxGGEVp-83" value="function" style="rounded=0;whiteSpace=wrap;html=1;sketch=1;fontFamily=Architects Daughter;fontSource=https%3A%2F%2Ffonts.googleapis.com%2Fcss%3Ffamily%3DArchitects%2BDaughter;fillColor=#d5e8d4;strokeColor=#82b366;fillStyle=solid;" parent="1" vertex="1">
          <mxGeometry x="230" y="320" width="80" height="30" as="geometry" />
        </mxCell>
        <mxCell id="6gGuHzRQzGazjfxGGEVp-87" value="Temperature" style="rounded=0;whiteSpace=wrap;html=1;sketch=1;fontFamily=Architects Daughter;fontSource=https%3A%2F%2Ffonts.googleapis.com%2Fcss%3Ffamily%3DArchitects%2BDaughter;" parent="1" vertex="1">
          <mxGeometry x="-160" y="970" width="120" height="30" as="geometry" />
        </mxCell>
        <mxCell id="6gGuHzRQzGazjfxGGEVp-89" value="Properties" style="rounded=0;whiteSpace=wrap;html=1;sketch=1;fontFamily=Architects Daughter;fontSource=https%3A%2F%2Ffonts.googleapis.com%2Fcss%3Ffamily%3DArchitects%2BDaughter;" parent="1" vertex="1">
          <mxGeometry x="-420" y="970" width="120" height="30" as="geometry" />
        </mxCell>
        <mxCell id="6gGuHzRQzGazjfxGGEVp-91" value="Viewer/Editor" style="rounded=0;whiteSpace=wrap;html=1;sketch=1;fontFamily=Architects Daughter;fontSource=https%3A%2F%2Ffonts.googleapis.com%2Fcss%3Ffamily%3DArchitects%2BDaughter;" parent="1" vertex="1">
          <mxGeometry x="-550" y="970" width="120" height="30" as="geometry" />
        </mxCell>
        <mxCell id="6gGuHzRQzGazjfxGGEVp-93" value="Lamp" style="rounded=0;whiteSpace=wrap;html=1;sketch=1;fontFamily=Architects Daughter;fontSource=https%3A%2F%2Ffonts.googleapis.com%2Fcss%3Ffamily%3DArchitects%2BDaughter;" parent="1" vertex="1">
          <mxGeometry x="-680" y="970" width="120" height="30" as="geometry" />
        </mxCell>
        <mxCell id="6gGuHzRQzGazjfxGGEVp-95" value="Node Object" style="rounded=0;whiteSpace=wrap;html=1;sketch=1;fontFamily=Architects Daughter;fontSource=https%3A%2F%2Ffonts.googleapis.com%2Fcss%3Ffamily%3DArchitects%2BDaughter;" parent="1" vertex="1">
          <mxGeometry x="430" y="220" width="120" height="30" as="geometry" />
        </mxCell>
        <mxCell id="6gGuHzRQzGazjfxGGEVp-103" value="Tags" style="rounded=0;whiteSpace=wrap;html=1;sketch=1;fontFamily=Architects Daughter;fontSource=https%3A%2F%2Ffonts.googleapis.com%2Fcss%3Ffamily%3DArchitects%2BDaughter;" parent="1" vertex="1">
          <mxGeometry x="470" y="360" width="80" height="30" as="geometry" />
        </mxCell>
        <mxCell id="6gGuHzRQzGazjfxGGEVp-104" value="Properties" style="rounded=0;whiteSpace=wrap;html=1;sketch=1;fontFamily=Architects Daughter;fontSource=https%3A%2F%2Ffonts.googleapis.com%2Fcss%3Ffamily%3DArchitects%2BDaughter;" parent="1" vertex="1">
          <mxGeometry x="470" y="420" width="80" height="30" as="geometry" />
        </mxCell>
        <mxCell id="6gGuHzRQzGazjfxGGEVp-105" value="[STRING]" style="rounded=0;whiteSpace=wrap;html=1;sketch=1;fontFamily=Architects Daughter;fontSource=https%3A%2F%2Ffonts.googleapis.com%2Fcss%3Ffamily%3DArchitects%2BDaughter;fillColor=#dae8fc;strokeColor=#6c8ebf;fillStyle=solid;" parent="1" vertex="1">
          <mxGeometry x="550" y="360" width="80" height="30" as="geometry" />
        </mxCell>
        <mxCell id="6gGuHzRQzGazjfxGGEVp-230" style="edgeStyle=orthogonalEdgeStyle;curved=1;rounded=0;sketch=1;orthogonalLoop=1;jettySize=auto;html=1;entryX=0;entryY=0.5;entryDx=0;entryDy=0;fontFamily=Architects Daughter;fontSource=https%3A%2F%2Ffonts.googleapis.com%2Fcss%3Ffamily%3DArchitects%2BDaughter;fontSize=10;startArrow=none;startFill=0;endArrow=none;endFill=0;strokeColor=#CCE5FF;" parent="1" source="6gGuHzRQzGazjfxGGEVp-106" target="6gGuHzRQzGazjfxGGEVp-115" edge="1">
          <mxGeometry relative="1" as="geometry" />
        </mxCell>
        <mxCell id="6gGuHzRQzGazjfxGGEVp-106" value="[OBJECT]" style="rounded=0;whiteSpace=wrap;html=1;sketch=1;fontFamily=Architects Daughter;fontSource=https%3A%2F%2Ffonts.googleapis.com%2Fcss%3Ffamily%3DArchitects%2BDaughter;fillColor=#f8cecc;strokeColor=#b85450;fillStyle=solid;" parent="1" vertex="1">
          <mxGeometry x="550" y="420" width="80" height="30" as="geometry" />
        </mxCell>
        <mxCell id="6gGuHzRQzGazjfxGGEVp-107" value="sw_update" style="rounded=0;whiteSpace=wrap;html=1;sketch=1;fontFamily=Architects Daughter;fontSource=https%3A%2F%2Ffonts.googleapis.com%2Fcss%3Ffamily%3DArchitects%2BDaughter;" parent="1" vertex="1">
          <mxGeometry x="470" y="590" width="80" height="30" as="geometry" />
        </mxCell>
        <mxCell id="6gGuHzRQzGazjfxGGEVp-108" value="hw_update" style="rounded=0;whiteSpace=wrap;html=1;sketch=1;fontFamily=Architects Daughter;fontSource=https%3A%2F%2Ffonts.googleapis.com%2Fcss%3Ffamily%3DArchitects%2BDaughter;" parent="1" vertex="1">
          <mxGeometry x="470" y="390" width="80" height="30" as="geometry" />
        </mxCell>
        <mxCell id="6gGuHzRQzGazjfxGGEVp-110" value="function" style="rounded=0;whiteSpace=wrap;html=1;sketch=1;fontFamily=Architects Daughter;fontSource=https%3A%2F%2Ffonts.googleapis.com%2Fcss%3Ffamily%3DArchitects%2BDaughter;fillColor=#d5e8d4;strokeColor=#82b366;fillStyle=solid;" parent="1" vertex="1">
          <mxGeometry x="550" y="390" width="80" height="30" as="geometry" />
        </mxCell>
        <mxCell id="6gGuHzRQzGazjfxGGEVp-111" value="_hw" style="rounded=0;whiteSpace=wrap;html=1;sketch=1;fontFamily=Architects Daughter;fontSource=https%3A%2F%2Ffonts.googleapis.com%2Fcss%3Ffamily%3DArchitects%2BDaughter;" parent="1" vertex="1">
          <mxGeometry x="470" y="450" width="80" height="30" as="geometry" />
        </mxCell>
        <mxCell id="6gGuHzRQzGazjfxGGEVp-112" value="[OBJECT]" style="rounded=0;whiteSpace=wrap;html=1;sketch=1;fontFamily=Architects Daughter;fontSource=https%3A%2F%2Ffonts.googleapis.com%2Fcss%3Ffamily%3DArchitects%2BDaughter;fillColor=#f8cecc;strokeColor=#b85450;fillStyle=solid;" parent="1" vertex="1">
          <mxGeometry x="550" y="450" width="80" height="30" as="geometry" />
        </mxCell>
        <mxCell id="6gGuHzRQzGazjfxGGEVp-113" value="_storage" style="rounded=0;whiteSpace=wrap;html=1;sketch=1;fontFamily=Architects Daughter;fontSource=https%3A%2F%2Ffonts.googleapis.com%2Fcss%3Ffamily%3DArchitects%2BDaughter;" parent="1" vertex="1">
          <mxGeometry x="470" y="480" width="80" height="30" as="geometry" />
        </mxCell>
        <mxCell id="6gGuHzRQzGazjfxGGEVp-114" value="[OBJECT]" style="rounded=0;whiteSpace=wrap;html=1;sketch=1;fontFamily=Architects Daughter;fontSource=https%3A%2F%2Ffonts.googleapis.com%2Fcss%3Ffamily%3DArchitects%2BDaughter;fillColor=#f8cecc;strokeColor=#b85450;fillStyle=solid;" parent="1" vertex="1">
          <mxGeometry x="550" y="480" width="80" height="30" as="geometry" />
        </mxCell>
        <mxCell id="6gGuHzRQzGazjfxGGEVp-115" value="Property Object" style="rounded=0;whiteSpace=wrap;html=1;sketch=1;fontFamily=Architects Daughter;fontSource=https%3A%2F%2Ffonts.googleapis.com%2Fcss%3Ffamily%3DArchitects%2BDaughter;" parent="1" vertex="1">
          <mxGeometry x="750" y="220" width="120" height="30" as="geometry" />
        </mxCell>
        <mxCell id="6gGuHzRQzGazjfxGGEVp-141" value="_value" style="rounded=0;whiteSpace=wrap;html=1;sketch=1;fontFamily=Architects Daughter;fontSource=https%3A%2F%2Ffonts.googleapis.com%2Fcss%3Ffamily%3DArchitects%2BDaughter;" parent="1" vertex="1">
          <mxGeometry x="790" y="450" width="80" height="30" as="geometry" />
        </mxCell>
        <mxCell id="6gGuHzRQzGazjfxGGEVp-142" value="OBJECT" style="rounded=0;whiteSpace=wrap;html=1;sketch=1;fontFamily=Architects Daughter;fontSource=https%3A%2F%2Ffonts.googleapis.com%2Fcss%3Ffamily%3DArchitects%2BDaughter;fillColor=#ffe6cc;strokeColor=#d79b00;fillStyle=solid;" parent="1" vertex="1">
          <mxGeometry x="870" y="450" width="80" height="30" as="geometry" />
        </mxCell>
        <mxCell id="6gGuHzRQzGazjfxGGEVp-143" value="_on_edit" style="rounded=0;whiteSpace=wrap;html=1;sketch=1;fontFamily=Architects Daughter;fontSource=https%3A%2F%2Ffonts.googleapis.com%2Fcss%3Ffamily%3DArchitects%2BDaughter;" parent="1" vertex="1">
          <mxGeometry x="790" y="480" width="80" height="30" as="geometry" />
        </mxCell>
        <mxCell id="6gGuHzRQzGazjfxGGEVp-144" value="function" style="rounded=0;whiteSpace=wrap;html=1;sketch=1;fontFamily=Architects Daughter;fontSource=https%3A%2F%2Ffonts.googleapis.com%2Fcss%3Ffamily%3DArchitects%2BDaughter;fillColor=#d5e8d4;strokeColor=#82b366;fillStyle=solid;" parent="1" vertex="1">
          <mxGeometry x="870" y="480" width="80" height="30" as="geometry" />
        </mxCell>
        <mxCell id="6gGuHzRQzGazjfxGGEVp-145" value="_on_create" style="rounded=0;whiteSpace=wrap;html=1;sketch=1;fontFamily=Architects Daughter;fontSource=https%3A%2F%2Ffonts.googleapis.com%2Fcss%3Ffamily%3DArchitects%2BDaughter;" parent="1" vertex="1">
          <mxGeometry x="790" y="510" width="80" height="30" as="geometry" />
        </mxCell>
        <mxCell id="6gGuHzRQzGazjfxGGEVp-146" value="function" style="rounded=0;whiteSpace=wrap;html=1;sketch=1;fontFamily=Architects Daughter;fontSource=https%3A%2F%2Ffonts.googleapis.com%2Fcss%3Ffamily%3DArchitects%2BDaughter;fillColor=#d5e8d4;strokeColor=#82b366;fillStyle=solid;" parent="1" vertex="1">
          <mxGeometry x="870" y="510" width="80" height="30" as="geometry" />
        </mxCell>
        <mxCell id="6gGuHzRQzGazjfxGGEVp-147" value="_on_cancel" style="rounded=0;whiteSpace=wrap;html=1;sketch=1;fontFamily=Architects Daughter;fontSource=https%3A%2F%2Ffonts.googleapis.com%2Fcss%3Ffamily%3DArchitects%2BDaughter;" parent="1" vertex="1">
          <mxGeometry x="790" y="570" width="80" height="30" as="geometry" />
        </mxCell>
        <mxCell id="6gGuHzRQzGazjfxGGEVp-148" value="function" style="rounded=0;whiteSpace=wrap;html=1;sketch=1;fontFamily=Architects Daughter;fontSource=https%3A%2F%2Ffonts.googleapis.com%2Fcss%3Ffamily%3DArchitects%2BDaughter;fillColor=#d5e8d4;strokeColor=#82b366;fillStyle=solid;" parent="1" vertex="1">
          <mxGeometry x="870" y="570" width="80" height="30" as="geometry" />
        </mxCell>
        <mxCell id="6gGuHzRQzGazjfxGGEVp-149" value="_on_update" style="rounded=0;whiteSpace=wrap;html=1;sketch=1;fontFamily=Architects Daughter;fontSource=https%3A%2F%2Ffonts.googleapis.com%2Fcss%3Ffamily%3DArchitects%2BDaughter;" parent="1" vertex="1">
          <mxGeometry x="790" y="540" width="80" height="30" as="geometry" />
        </mxCell>
        <mxCell id="6gGuHzRQzGazjfxGGEVp-150" value="function" style="rounded=0;whiteSpace=wrap;html=1;sketch=1;fontFamily=Architects Daughter;fontSource=https%3A%2F%2Ffonts.googleapis.com%2Fcss%3Ffamily%3DArchitects%2BDaughter;fillColor=#d5e8d4;strokeColor=#82b366;fillStyle=solid;" parent="1" vertex="1">
          <mxGeometry x="870" y="540" width="80" height="30" as="geometry" />
        </mxCell>
        <mxCell id="6gGuHzRQzGazjfxGGEVp-151" value="_node" style="rounded=0;whiteSpace=wrap;html=1;sketch=1;fontFamily=Architects Daughter;fontSource=https%3A%2F%2Ffonts.googleapis.com%2Fcss%3Ffamily%3DArchitects%2BDaughter;" parent="1" vertex="1">
          <mxGeometry x="790" y="420" width="80" height="30" as="geometry" />
        </mxCell>
        <mxCell id="6gGuHzRQzGazjfxGGEVp-152" value="OBJECT" style="rounded=0;whiteSpace=wrap;html=1;sketch=1;fontFamily=Architects Daughter;fontSource=https%3A%2F%2Ffonts.googleapis.com%2Fcss%3Ffamily%3DArchitects%2BDaughter;fillColor=#ffe6cc;strokeColor=#d79b00;fillStyle=solid;" parent="1" vertex="1">
          <mxGeometry x="870" y="420" width="80" height="30" as="geometry" />
        </mxCell>
        <mxCell id="6gGuHzRQzGazjfxGGEVp-153" value="set" style="rounded=0;whiteSpace=wrap;html=1;sketch=1;fontFamily=Architects Daughter;fontSource=https%3A%2F%2Ffonts.googleapis.com%2Fcss%3Ffamily%3DArchitects%2BDaughter;" parent="1" vertex="1">
          <mxGeometry x="790" y="360" width="80" height="30" as="geometry" />
        </mxCell>
        <mxCell id="6gGuHzRQzGazjfxGGEVp-154" value="function" style="rounded=0;whiteSpace=wrap;html=1;sketch=1;fontFamily=Architects Daughter;fontSource=https%3A%2F%2Ffonts.googleapis.com%2Fcss%3Ffamily%3DArchitects%2BDaughter;fillColor=#d5e8d4;strokeColor=#82b366;fillStyle=solid;" parent="1" vertex="1">
          <mxGeometry x="870" y="360" width="80" height="30" as="geometry" />
        </mxCell>
        <mxCell id="6gGuHzRQzGazjfxGGEVp-155" value="STRING" style="rounded=0;whiteSpace=wrap;html=1;sketch=1;fontFamily=Architects Daughter;fontSource=https%3A%2F%2Ffonts.googleapis.com%2Fcss%3Ffamily%3DArchitects%2BDaughter;fillColor=#dae8fc;strokeColor=#6c8ebf;" parent="1" vertex="1">
          <mxGeometry x="950" y="360" width="80" height="30" as="geometry" />
        </mxCell>
        <mxCell id="6gGuHzRQzGazjfxGGEVp-156" value="get" style="rounded=0;whiteSpace=wrap;html=1;sketch=1;fontFamily=Architects Daughter;fontSource=https%3A%2F%2Ffonts.googleapis.com%2Fcss%3Ffamily%3DArchitects%2BDaughter;" parent="1" vertex="1">
          <mxGeometry x="790" y="390" width="80" height="30" as="geometry" />
        </mxCell>
        <mxCell id="6gGuHzRQzGazjfxGGEVp-157" value="function" style="rounded=0;whiteSpace=wrap;html=1;sketch=1;fontFamily=Architects Daughter;fontSource=https%3A%2F%2Ffonts.googleapis.com%2Fcss%3Ffamily%3DArchitects%2BDaughter;fillColor=#d5e8d4;strokeColor=#82b366;fillStyle=solid;" parent="1" vertex="1">
          <mxGeometry x="870" y="390" width="80" height="30" as="geometry" />
        </mxCell>
        <mxCell id="6gGuHzRQzGazjfxGGEVp-162" style="edgeStyle=orthogonalEdgeStyle;rounded=0;sketch=1;orthogonalLoop=1;jettySize=auto;html=1;fontFamily=Architects Daughter;fontSource=https%3A%2F%2Ffonts.googleapis.com%2Fcss%3Ffamily%3DArchitects%2BDaughter;" parent="1" source="6gGuHzRQzGazjfxGGEVp-160" target="6gGuHzRQzGazjfxGGEVp-161" edge="1">
          <mxGeometry relative="1" as="geometry">
            <Array as="points">
              <mxPoint x="-280" y="1160" />
              <mxPoint x="-420" y="1160" />
            </Array>
          </mxGeometry>
        </mxCell>
        <mxCell id="6gGuHzRQzGazjfxGGEVp-165" style="edgeStyle=orthogonalEdgeStyle;rounded=0;sketch=1;orthogonalLoop=1;jettySize=auto;html=1;entryX=0.5;entryY=0;entryDx=0;entryDy=0;fontFamily=Architects Daughter;fontSource=https%3A%2F%2Ffonts.googleapis.com%2Fcss%3Ffamily%3DArchitects%2BDaughter;" parent="1" source="6gGuHzRQzGazjfxGGEVp-160" target="6gGuHzRQzGazjfxGGEVp-163" edge="1">
          <mxGeometry relative="1" as="geometry" />
        </mxCell>
        <mxCell id="6gGuHzRQzGazjfxGGEVp-166" value="" style="edgeStyle=orthogonalEdgeStyle;rounded=0;sketch=1;orthogonalLoop=1;jettySize=auto;html=1;fontFamily=Architects Daughter;fontSource=https%3A%2F%2Ffonts.googleapis.com%2Fcss%3Ffamily%3DArchitects%2BDaughter;" parent="1" source="6gGuHzRQzGazjfxGGEVp-160" target="6gGuHzRQzGazjfxGGEVp-163" edge="1">
          <mxGeometry relative="1" as="geometry" />
        </mxCell>
        <mxCell id="6gGuHzRQzGazjfxGGEVp-167" style="edgeStyle=orthogonalEdgeStyle;rounded=0;sketch=1;orthogonalLoop=1;jettySize=auto;html=1;entryX=0.5;entryY=0;entryDx=0;entryDy=0;fontFamily=Architects Daughter;fontSource=https%3A%2F%2Ffonts.googleapis.com%2Fcss%3Ffamily%3DArchitects%2BDaughter;startArrow=classic;startFill=1;" parent="1" source="6gGuHzRQzGazjfxGGEVp-160" target="6gGuHzRQzGazjfxGGEVp-164" edge="1">
          <mxGeometry relative="1" as="geometry">
            <Array as="points">
              <mxPoint x="-280" y="1160" />
              <mxPoint x="-140" y="1160" />
            </Array>
          </mxGeometry>
        </mxCell>
        <mxCell id="6gGuHzRQzGazjfxGGEVp-160" value="&lt;font face=&quot;Architects Daughter&quot; data-font-src=&quot;https://fonts.googleapis.com/css?family=Architects+Daughter&quot;&gt;Remote&lt;/font&gt;" style="rounded=0;whiteSpace=wrap;html=1;sketch=1;fillStyle=solid;" parent="1" vertex="1">
          <mxGeometry x="-340" y="1080" width="120" height="60" as="geometry" />
        </mxCell>
        <mxCell id="6gGuHzRQzGazjfxGGEVp-161" value="&lt;font face=&quot;Architects Daughter&quot; data-font-src=&quot;https://fonts.googleapis.com/css?family=Architects+Daughter&quot;&gt;Viewer&lt;/font&gt;" style="rounded=0;whiteSpace=wrap;html=1;sketch=1;fillStyle=solid;" parent="1" vertex="1">
          <mxGeometry x="-480" y="1180" width="120" height="60" as="geometry" />
        </mxCell>
        <mxCell id="6gGuHzRQzGazjfxGGEVp-163" value="&lt;font face=&quot;Architects Daughter&quot; data-font-src=&quot;https://fonts.googleapis.com/css?family=Architects+Daughter&quot;&gt;Lamp&lt;/font&gt;" style="rounded=0;whiteSpace=wrap;html=1;sketch=1;fillStyle=solid;" parent="1" vertex="1">
          <mxGeometry x="-340" y="1180" width="120" height="60" as="geometry" />
        </mxCell>
        <mxCell id="6gGuHzRQzGazjfxGGEVp-164" value="&lt;font face=&quot;Architects Daughter&quot; data-font-src=&quot;https://fonts.googleapis.com/css?family=Architects+Daughter&quot;&gt;Simulation&lt;/font&gt;" style="rounded=0;whiteSpace=wrap;html=1;sketch=1;fillStyle=solid;" parent="1" vertex="1">
          <mxGeometry x="-200" y="1180" width="120" height="60" as="geometry" />
        </mxCell>
        <mxCell id="6gGuHzRQzGazjfxGGEVp-170" style="edgeStyle=orthogonalEdgeStyle;rounded=0;sketch=1;orthogonalLoop=1;jettySize=auto;html=1;entryX=0.5;entryY=0;entryDx=0;entryDy=0;fontFamily=Architects Daughter;fontSource=https%3A%2F%2Ffonts.googleapis.com%2Fcss%3Ffamily%3DArchitects%2BDaughter;startArrow=classic;startFill=1;" parent="1" source="6gGuHzRQzGazjfxGGEVp-168" target="6gGuHzRQzGazjfxGGEVp-164" edge="1">
          <mxGeometry relative="1" as="geometry" />
        </mxCell>
        <mxCell id="6gGuHzRQzGazjfxGGEVp-168" value="&lt;font face=&quot;Architects Daughter&quot; data-font-src=&quot;https://fonts.googleapis.com/css?family=Architects+Daughter&quot;&gt;REPL&lt;/font&gt;" style="rounded=0;whiteSpace=wrap;html=1;sketch=1;fillStyle=solid;" parent="1" vertex="1">
          <mxGeometry x="-200" y="1080" width="120" height="60" as="geometry" />
        </mxCell>
        <mxCell id="6gGuHzRQzGazjfxGGEVp-172" style="edgeStyle=orthogonalEdgeStyle;rounded=0;sketch=1;orthogonalLoop=1;jettySize=auto;html=1;fontFamily=Architects Daughter;fontSource=https%3A%2F%2Ffonts.googleapis.com%2Fcss%3Ffamily%3DArchitects%2BDaughter;startArrow=classic;startFill=1;" parent="1" source="6gGuHzRQzGazjfxGGEVp-171" target="6gGuHzRQzGazjfxGGEVp-161" edge="1">
          <mxGeometry relative="1" as="geometry" />
        </mxCell>
        <mxCell id="6gGuHzRQzGazjfxGGEVp-171" value="&lt;font face=&quot;Architects Daughter&quot;&gt;Motor accrssory&lt;/font&gt;" style="rounded=0;whiteSpace=wrap;html=1;sketch=1;fillStyle=solid;" parent="1" vertex="1">
          <mxGeometry x="-480" y="1080" width="120" height="60" as="geometry" />
        </mxCell>
        <mxCell id="6gGuHzRQzGazjfxGGEVp-190" value="Pakage logic here" style="text;html=1;strokeColor=none;fillColor=none;align=center;verticalAlign=middle;whiteSpace=wrap;rounded=0;sketch=1;fillStyle=solid;fontFamily=Architects Daughter;fontSource=https%3A%2F%2Ffonts.googleapis.com%2Fcss%3Ffamily%3DArchitects%2BDaughter;" parent="1" vertex="1">
          <mxGeometry x="-365" y="1730" width="220" height="30" as="geometry" />
        </mxCell>
        <mxCell id="6gGuHzRQzGazjfxGGEVp-191" value="UDP listener" style="rounded=0;whiteSpace=wrap;html=1;sketch=1;fontFamily=Architects Daughter;fontSource=https%3A%2F%2Ffonts.googleapis.com%2Fcss%3Ffamily%3DArchitects%2BDaughter;" parent="1" vertex="1">
          <mxGeometry x="-445" y="1810" width="120" height="30" as="geometry" />
        </mxCell>
        <mxCell id="6gGuHzRQzGazjfxGGEVp-192" value="Socket" style="rounded=0;whiteSpace=wrap;html=1;sketch=1;fontFamily=Architects Daughter;fontSource=https%3A%2F%2Ffonts.googleapis.com%2Fcss%3Ffamily%3DArchitects%2BDaughter;" parent="1" vertex="1">
          <mxGeometry x="-445" y="1770" width="120" height="30" as="geometry" />
        </mxCell>
        <mxCell id="6gGuHzRQzGazjfxGGEVp-193" value="Art-Net Packet" style="rounded=0;whiteSpace=wrap;html=1;sketch=1;fontFamily=Architects Daughter;fontSource=https%3A%2F%2Ffonts.googleapis.com%2Fcss%3Ffamily%3DArchitects%2BDaughter;" parent="1" vertex="1">
          <mxGeometry x="-445" y="1850" width="120" height="30" as="geometry" />
        </mxCell>
        <mxCell id="6gGuHzRQzGazjfxGGEVp-199" style="edgeStyle=orthogonalEdgeStyle;rounded=0;sketch=1;orthogonalLoop=1;jettySize=auto;html=1;entryX=0;entryY=0.5;entryDx=0;entryDy=0;fontFamily=Architects Daughter;fontSource=https%3A%2F%2Ffonts.googleapis.com%2Fcss%3Ffamily%3DArchitects%2BDaughter;fontSize=10;startArrow=none;startFill=0;curved=1;endArrow=none;endFill=0;" parent="1" source="6gGuHzRQzGazjfxGGEVp-198" target="6gGuHzRQzGazjfxGGEVp-79" edge="1">
          <mxGeometry relative="1" as="geometry" />
        </mxCell>
        <mxCell id="6gGuHzRQzGazjfxGGEVp-198" value="&lt;p&gt;&lt;font style=&quot;font-size: 10px&quot;&gt;will create a new object which is exact copy of the original&lt;/font&gt;&lt;/p&gt;" style="text;html=1;strokeColor=#d6b656;fillColor=#fff2cc;spacing=5;spacingTop=-20;whiteSpace=wrap;overflow=hidden;rounded=0;sketch=1;fillStyle=solid;fontFamily=Architects Daughter;fontSource=https%3A%2F%2Ffonts.googleapis.com%2Fcss%3Ffamily%3DArchitects%2BDaughter;" parent="1" vertex="1">
          <mxGeometry x="-20" y="260" width="130" height="60" as="geometry" />
        </mxCell>
        <mxCell id="6gGuHzRQzGazjfxGGEVp-201" style="edgeStyle=orthogonalEdgeStyle;curved=1;rounded=0;sketch=1;orthogonalLoop=1;jettySize=auto;html=1;entryX=0;entryY=0.5;entryDx=0;entryDy=0;fontFamily=Architects Daughter;fontSource=https%3A%2F%2Ffonts.googleapis.com%2Fcss%3Ffamily%3DArchitects%2BDaughter;fontSize=10;startArrow=none;startFill=0;endArrow=none;endFill=0;" parent="1" source="6gGuHzRQzGazjfxGGEVp-200" target="6gGuHzRQzGazjfxGGEVp-82" edge="1">
          <mxGeometry relative="1" as="geometry" />
        </mxCell>
        <mxCell id="6gGuHzRQzGazjfxGGEVp-200" value="&lt;p&gt;&lt;font style=&quot;font-size: 10px&quot;&gt;return a string if copied to a python REPL will create exact copy of the object&lt;/font&gt;&lt;/p&gt;" style="text;html=1;strokeColor=#d6b656;fillColor=#fff2cc;spacing=5;spacingTop=-20;whiteSpace=wrap;overflow=hidden;rounded=0;sketch=1;fillStyle=solid;fontFamily=Architects Daughter;fontSource=https%3A%2F%2Ffonts.googleapis.com%2Fcss%3Ffamily%3DArchitects%2BDaughter;" parent="1" vertex="1">
          <mxGeometry x="-20" y="330" width="130" height="60" as="geometry" />
        </mxCell>
        <mxCell id="6gGuHzRQzGazjfxGGEVp-220" value="&lt;p&gt;&lt;font style=&quot;font-size: 10px&quot;&gt;the most basic device in the network is node. Provides basic communication structure and scarfolding for SOC implementations for syste IO&lt;/font&gt;&lt;/p&gt;" style="text;html=1;strokeColor=#d6b656;fillColor=#fff2cc;spacing=5;spacingTop=-20;whiteSpace=wrap;overflow=hidden;rounded=0;sketch=1;fillStyle=solid;fontFamily=Architects Daughter;fontSource=https%3A%2F%2Ffonts.googleapis.com%2Fcss%3Ffamily%3DArchitects%2BDaughter;" parent="1" vertex="1">
          <mxGeometry x="430" y="150" width="200" height="60" as="geometry" />
        </mxCell>
        <mxCell id="6gGuHzRQzGazjfxGGEVp-221" value="&lt;p&gt;&lt;span style=&quot;font-size: 10px&quot;&gt;The root node of all the Python objects necessary to describe and&amp;nbsp;&lt;/span&gt;&lt;span style=&quot;font-size: 10px&quot;&gt;operate autonomous iot networked system to build complete robotic setups&amp;nbsp;&lt;/span&gt;&lt;/p&gt;" style="text;html=1;strokeColor=#d6b656;fillColor=#fff2cc;spacing=5;spacingTop=-20;whiteSpace=wrap;overflow=hidden;rounded=0;sketch=1;fillStyle=solid;fontFamily=Architects Daughter;fontSource=https%3A%2F%2Ffonts.googleapis.com%2Fcss%3Ffamily%3DArchitects%2BDaughter;" parent="1" vertex="1">
          <mxGeometry x="110" y="150" width="200" height="60" as="geometry" />
        </mxCell>
        <mxCell id="6gGuHzRQzGazjfxGGEVp-223" style="edgeStyle=orthogonalEdgeStyle;curved=1;rounded=0;sketch=1;orthogonalLoop=1;jettySize=auto;html=1;fontFamily=Architects Daughter;fontSource=https%3A%2F%2Ffonts.googleapis.com%2Fcss%3Ffamily%3DArchitects%2BDaughter;fontSize=10;startArrow=none;startFill=0;endArrow=none;endFill=0;" parent="1" source="6gGuHzRQzGazjfxGGEVp-222" target="6gGuHzRQzGazjfxGGEVp-103" edge="1">
          <mxGeometry relative="1" as="geometry" />
        </mxCell>
        <mxCell id="6gGuHzRQzGazjfxGGEVp-222" value="&lt;p&gt;&lt;font style=&quot;font-size: 10px&quot;&gt;All nodes in the network are adressable by tags system. if any of the tag strings match, this node will respond or execute the sent command&lt;/font&gt;&lt;/p&gt;" style="text;html=1;strokeColor=#d6b656;fillColor=#fff2cc;spacing=5;spacingTop=-20;whiteSpace=wrap;overflow=hidden;rounded=0;sketch=1;fillStyle=solid;fontFamily=Architects Daughter;fontSource=https%3A%2F%2Ffonts.googleapis.com%2Fcss%3Ffamily%3DArchitects%2BDaughter;" parent="1" vertex="1">
          <mxGeometry x="300" y="360" width="130" height="90" as="geometry" />
        </mxCell>
        <mxCell id="6gGuHzRQzGazjfxGGEVp-225" style="edgeStyle=orthogonalEdgeStyle;curved=1;rounded=0;sketch=1;orthogonalLoop=1;jettySize=auto;html=1;entryX=0;entryY=0.5;entryDx=0;entryDy=0;fontFamily=Architects Daughter;fontSource=https%3A%2F%2Ffonts.googleapis.com%2Fcss%3Ffamily%3DArchitects%2BDaughter;fontSize=10;startArrow=none;startFill=0;endArrow=none;endFill=0;exitX=1;exitY=0.5;exitDx=0;exitDy=0;" parent="1" source="6gGuHzRQzGazjfxGGEVp-224" target="6gGuHzRQzGazjfxGGEVp-108" edge="1">
          <mxGeometry relative="1" as="geometry">
            <Array as="points">
              <mxPoint x="280" y="473" />
              <mxPoint x="450" y="473" />
              <mxPoint x="450" y="405" />
            </Array>
          </mxGeometry>
        </mxCell>
        <mxCell id="6gGuHzRQzGazjfxGGEVp-224" value="&lt;p&gt;&lt;font style=&quot;font-size: 10px&quot;&gt;Hardware update loop, ie. button states, LED output, SPI, GPIO to update node parameters.&lt;br&gt;Set up in main.py and per device - not meant to be changed during runtime.&amp;nbsp;&lt;br&gt;If HW change is is detected reboot is preferred.&lt;/font&gt;&lt;/p&gt;&lt;p&gt;&lt;font style=&quot;font-size: 10px&quot;&gt;If the device does not have hardware the screen objects, simulation and other nodes main purpose code&lt;/font&gt;&lt;/p&gt;" style="text;html=1;strokeColor=#d6b656;fillColor=#fff2cc;spacing=5;spacingTop=-20;whiteSpace=wrap;overflow=hidden;rounded=0;sketch=1;fillStyle=solid;fontFamily=Architects Daughter;fontSource=https%3A%2F%2Ffonts.googleapis.com%2Fcss%3Ffamily%3DArchitects%2BDaughter;" parent="1" vertex="1">
          <mxGeometry x="150" y="360" width="130" height="230" as="geometry" />
        </mxCell>
        <mxCell id="6gGuHzRQzGazjfxGGEVp-227" style="edgeStyle=orthogonalEdgeStyle;curved=1;rounded=0;sketch=1;orthogonalLoop=1;jettySize=auto;html=1;entryX=0;entryY=0.5;entryDx=0;entryDy=0;fontFamily=Architects Daughter;fontSource=https%3A%2F%2Ffonts.googleapis.com%2Fcss%3Ffamily%3DArchitects%2BDaughter;fontSize=10;startArrow=none;startFill=0;endArrow=none;endFill=0;" parent="1" source="6gGuHzRQzGazjfxGGEVp-226" target="6gGuHzRQzGazjfxGGEVp-107" edge="1">
          <mxGeometry relative="1" as="geometry" />
        </mxCell>
        <mxCell id="6gGuHzRQzGazjfxGGEVp-226" value="&lt;p&gt;&lt;font style=&quot;font-size: 10px&quot;&gt;As parameters are runtime changeable all the updating and logic will be added to the sw_update stack. This stack is iterated in the main loop&lt;/font&gt;&lt;/p&gt;" style="text;html=1;strokeColor=#d6b656;fillColor=#fff2cc;spacing=5;spacingTop=-20;whiteSpace=wrap;overflow=hidden;rounded=0;sketch=1;fillStyle=solid;fontFamily=Architects Daughter;fontSource=https%3A%2F%2Ffonts.googleapis.com%2Fcss%3Ffamily%3DArchitects%2BDaughter;" parent="1" vertex="1">
          <mxGeometry x="300" y="560" width="130" height="90" as="geometry" />
        </mxCell>
        <mxCell id="6gGuHzRQzGazjfxGGEVp-229" style="edgeStyle=orthogonalEdgeStyle;curved=1;rounded=0;sketch=1;orthogonalLoop=1;jettySize=auto;html=1;entryX=0;entryY=0.75;entryDx=0;entryDy=0;fontFamily=Architects Daughter;fontSource=https%3A%2F%2Ffonts.googleapis.com%2Fcss%3Ffamily%3DArchitects%2BDaughter;fontSize=10;startArrow=none;startFill=0;endArrow=none;endFill=0;" parent="1" source="6gGuHzRQzGazjfxGGEVp-228" target="6gGuHzRQzGazjfxGGEVp-104" edge="1">
          <mxGeometry relative="1" as="geometry" />
        </mxCell>
        <mxCell id="6gGuHzRQzGazjfxGGEVp-228" value="&lt;p&gt;&lt;font style=&quot;font-size: 10px&quot;&gt;Properties object stack to keep all the properties data and event handling&lt;/font&gt;&lt;/p&gt;" style="text;html=1;strokeColor=#d6b656;fillColor=#fff2cc;spacing=5;spacingTop=-20;whiteSpace=wrap;overflow=hidden;rounded=0;sketch=1;fillStyle=solid;fontFamily=Architects Daughter;fontSource=https%3A%2F%2Ffonts.googleapis.com%2Fcss%3Ffamily%3DArchitects%2BDaughter;" parent="1" vertex="1">
          <mxGeometry x="300" y="490" width="130" height="50" as="geometry" />
        </mxCell>
        <mxCell id="6gGuHzRQzGazjfxGGEVp-231" value="threads" style="rounded=0;whiteSpace=wrap;html=1;sketch=1;fontFamily=Architects Daughter;fontSource=https%3A%2F%2Ffonts.googleapis.com%2Fcss%3Ffamily%3DArchitects%2BDaughter;" parent="1" vertex="1">
          <mxGeometry x="470" y="540" width="80" height="30" as="geometry" />
        </mxCell>
        <mxCell id="6gGuHzRQzGazjfxGGEVp-232" value="command" style="rounded=0;whiteSpace=wrap;html=1;sketch=1;fontFamily=Architects Daughter;fontSource=https%3A%2F%2Ffonts.googleapis.com%2Fcss%3Ffamily%3DArchitects%2BDaughter;" parent="1" vertex="1">
          <mxGeometry x="470" y="510" width="80" height="30" as="geometry" />
        </mxCell>
        <mxCell id="6gGuHzRQzGazjfxGGEVp-233" value="STRING" style="rounded=0;whiteSpace=wrap;html=1;sketch=1;fontFamily=Architects Daughter;fontSource=https%3A%2F%2Ffonts.googleapis.com%2Fcss%3Ffamily%3DArchitects%2BDaughter;fillColor=#dae8fc;strokeColor=#6c8ebf;" parent="1" vertex="1">
          <mxGeometry x="630" y="510" width="80" height="30" as="geometry" />
        </mxCell>
        <mxCell id="6gGuHzRQzGazjfxGGEVp-234" value="function" style="rounded=0;whiteSpace=wrap;html=1;sketch=1;fontFamily=Architects Daughter;fontSource=https%3A%2F%2Ffonts.googleapis.com%2Fcss%3Ffamily%3DArchitects%2BDaughter;fillColor=#d5e8d4;strokeColor=#82b366;fillStyle=solid;" parent="1" vertex="1">
          <mxGeometry x="550" y="510" width="80" height="30" as="geometry" />
        </mxCell>
        <mxCell id="6gGuHzRQzGazjfxGGEVp-236" value="&lt;p&gt;&lt;font style=&quot;font-size: 10px&quot;&gt;property is the basic controllable unit. Sensor, button, led, screen, actuator, robot arm location. The property self contains logic and can use shared ?storage list within Node object&lt;/font&gt;&lt;/p&gt;" style="text;html=1;strokeColor=#d6b656;fillColor=#fff2cc;spacing=5;spacingTop=-20;whiteSpace=wrap;overflow=hidden;rounded=0;sketch=1;fillStyle=solid;fontFamily=Architects Daughter;fontSource=https%3A%2F%2Ffonts.googleapis.com%2Fcss%3Ffamily%3DArchitects%2BDaughter;" parent="1" vertex="1">
          <mxGeometry x="750" y="130" width="200" height="80" as="geometry" />
        </mxCell>
        <mxCell id="glC73n-N2dMUQhjcY6fc-1" value="Node Packet" style="rounded=0;whiteSpace=wrap;html=1;sketch=1;fontFamily=Architects Daughter;fontSource=https%3A%2F%2Ffonts.googleapis.com%2Fcss%3Ffamily%3DArchitects%2BDaughter;" parent="1" vertex="1">
          <mxGeometry x="-445" y="1890" width="430" height="30" as="geometry" />
        </mxCell>
        <mxCell id="glC73n-N2dMUQhjcY6fc-2" value="Node Raw Packet" style="rounded=0;whiteSpace=wrap;html=1;sketch=1;fontFamily=Architects Daughter;fontSource=https%3A%2F%2Ffonts.googleapis.com%2Fcss%3Ffamily%3DArchitects%2BDaughter;" parent="1" vertex="1">
          <mxGeometry x="-315" y="1850" width="300" height="30" as="geometry" />
        </mxCell>
        <mxCell id="glC73n-N2dMUQhjcY6fc-3" value="UART" style="rounded=0;whiteSpace=wrap;html=1;sketch=1;fontFamily=Architects Daughter;fontSource=https%3A%2F%2Ffonts.googleapis.com%2Fcss%3Ffamily%3DArchitects%2BDaughter;" parent="1" vertex="1">
          <mxGeometry x="-315" y="1810" width="170" height="30" as="geometry" />
        </mxCell>
        <mxCell id="glC73n-N2dMUQhjcY6fc-4" value="I2C" style="rounded=0;whiteSpace=wrap;html=1;sketch=1;fontFamily=Architects Daughter;fontSource=https%3A%2F%2Ffonts.googleapis.com%2Fcss%3Ffamily%3DArchitects%2BDaughter;" parent="1" vertex="1">
          <mxGeometry x="-135" y="1810" width="120" height="30" as="geometry" />
        </mxCell>
        <mxCell id="glC73n-N2dMUQhjcY6fc-5" value="DMX" style="rounded=0;whiteSpace=wrap;html=1;sketch=1;fontFamily=Architects Daughter;fontSource=https%3A%2F%2Ffonts.googleapis.com%2Fcss%3Ffamily%3DArchitects%2BDaughter;" parent="1" vertex="1">
          <mxGeometry x="-315" y="1770" width="60" height="30" as="geometry" />
        </mxCell>
        <mxCell id="glC73n-N2dMUQhjcY6fc-6" value="LumenRadio" style="rounded=0;whiteSpace=wrap;html=1;sketch=1;fontFamily=Architects Daughter;fontSource=https%3A%2F%2Ffonts.googleapis.com%2Fcss%3Ffamily%3DArchitects%2BDaughter;" parent="1" vertex="1">
          <mxGeometry x="-245" y="1770" width="100" height="30" as="geometry" />
        </mxCell>
        <mxCell id="glC73n-N2dMUQhjcY6fc-7" value="SYNC exec (Hw update use timer)" style="rounded=0;whiteSpace=wrap;html=1;sketch=1;fontFamily=Architects Daughter;fontSource=https%3A%2F%2Ffonts.googleapis.com%2Fcss%3Ffamily%3DArchitects%2BDaughter;" parent="1" vertex="1">
          <mxGeometry x="-445" y="1920" width="430" height="20" as="geometry" />
        </mxCell>
        <UserObject label="Art-Net Object" id="glC73n-N2dMUQhjcY6fc-9">
          <mxCell style="rounded=0;whiteSpace=wrap;html=1;sketch=1;fontFamily=Architects Daughter;fontSource=https%3A%2F%2Ffonts.googleapis.com%2Fcss%3Ffamily%3DArchitects%2BDaughter;" parent="1" vertex="1">
            <mxGeometry x="110" y="750" width="120" height="30" as="geometry" />
          </mxCell>
        </UserObject>
        <mxCell id="glC73n-N2dMUQhjcY6fc-10" value="__init__" style="rounded=0;whiteSpace=wrap;html=1;sketch=1;fontFamily=Architects Daughter;fontSource=https%3A%2F%2Ffonts.googleapis.com%2Fcss%3Ffamily%3DArchitects%2BDaughter;" parent="1" vertex="1">
          <mxGeometry x="150" y="790" width="80" height="30" as="geometry" />
        </mxCell>
        <mxCell id="glC73n-N2dMUQhjcY6fc-22" style="edgeStyle=orthogonalEdgeStyle;orthogonalLoop=1;jettySize=auto;html=1;sketch=1;endArrow=none;endFill=0;curved=1;" parent="1" source="glC73n-N2dMUQhjcY6fc-11" target="glC73n-N2dMUQhjcY6fc-21" edge="1">
          <mxGeometry relative="1" as="geometry" />
        </mxCell>
        <mxCell id="glC73n-N2dMUQhjcY6fc-11" value="STRING" style="rounded=0;whiteSpace=wrap;html=1;sketch=1;fontFamily=Architects Daughter;fontSource=https%3A%2F%2Ffonts.googleapis.com%2Fcss%3Ffamily%3DArchitects%2BDaughter;fillColor=#dae8fc;strokeColor=#6c8ebf;" parent="1" vertex="1">
          <mxGeometry x="310" y="790" width="80" height="30" as="geometry" />
        </mxCell>
        <mxCell id="glC73n-N2dMUQhjcY6fc-12" value="get" style="rounded=0;whiteSpace=wrap;html=1;sketch=1;fontFamily=Architects Daughter;fontSource=https%3A%2F%2Ffonts.googleapis.com%2Fcss%3Ffamily%3DArchitects%2BDaughter;" parent="1" vertex="1">
          <mxGeometry x="150" y="850" width="80" height="30" as="geometry" />
        </mxCell>
        <mxCell id="glC73n-N2dMUQhjcY6fc-13" value="function" style="rounded=0;whiteSpace=wrap;html=1;sketch=1;fontFamily=Architects Daughter;fontSource=https%3A%2F%2Ffonts.googleapis.com%2Fcss%3Ffamily%3DArchitects%2BDaughter;fillColor=#d5e8d4;strokeColor=#82b366;fillStyle=solid;" parent="1" vertex="1">
          <mxGeometry x="230" y="790" width="80" height="30" as="geometry" />
        </mxCell>
        <mxCell id="glC73n-N2dMUQhjcY6fc-14" value="set" style="rounded=0;whiteSpace=wrap;html=1;sketch=1;fontFamily=Architects Daughter;fontSource=https%3A%2F%2Ffonts.googleapis.com%2Fcss%3Ffamily%3DArchitects%2BDaughter;" parent="1" vertex="1">
          <mxGeometry x="150" y="820" width="80" height="30" as="geometry" />
        </mxCell>
        <mxCell id="glC73n-N2dMUQhjcY6fc-24" style="edgeStyle=orthogonalEdgeStyle;curved=1;sketch=1;orthogonalLoop=1;jettySize=auto;html=1;endArrow=none;endFill=0;" parent="1" source="glC73n-N2dMUQhjcY6fc-15" target="glC73n-N2dMUQhjcY6fc-23" edge="1">
          <mxGeometry relative="1" as="geometry" />
        </mxCell>
        <mxCell id="glC73n-N2dMUQhjcY6fc-15" value="function" style="rounded=0;whiteSpace=wrap;html=1;sketch=1;fontFamily=Architects Daughter;fontSource=https%3A%2F%2Ffonts.googleapis.com%2Fcss%3Ffamily%3DArchitects%2BDaughter;fillColor=#d5e8d4;strokeColor=#82b366;fillStyle=solid;" parent="1" vertex="1">
          <mxGeometry x="230" y="850" width="80" height="30" as="geometry" />
        </mxCell>
        <mxCell id="glC73n-N2dMUQhjcY6fc-18" value="&lt;p&gt;&lt;span style=&quot;font-size: 10px;&quot;&gt;Art-Net package parser, create and read Art-Net packages&lt;/span&gt;&lt;/p&gt;" style="text;html=1;strokeColor=#d6b656;fillColor=#fff2cc;spacing=5;spacingTop=-20;whiteSpace=wrap;overflow=hidden;rounded=0;sketch=1;fillStyle=solid;fontFamily=Architects Daughter;fontSource=https%3A%2F%2Ffonts.googleapis.com%2Fcss%3Ffamily%3DArchitects%2BDaughter;" parent="1" vertex="1">
          <mxGeometry x="110" y="710" width="200" height="30" as="geometry" />
        </mxCell>
        <mxCell id="glC73n-N2dMUQhjcY6fc-25" style="edgeStyle=orthogonalEdgeStyle;sketch=1;orthogonalLoop=1;jettySize=auto;html=1;entryX=0;entryY=0.5;entryDx=0;entryDy=0;endArrow=none;endFill=0;rounded=1;jumpStyle=none;" parent="1" source="glC73n-N2dMUQhjcY6fc-19" target="glC73n-N2dMUQhjcY6fc-21" edge="1">
          <mxGeometry relative="1" as="geometry" />
        </mxCell>
        <mxCell id="glC73n-N2dMUQhjcY6fc-19" value="STRING" style="rounded=0;whiteSpace=wrap;html=1;sketch=1;fontFamily=Architects Daughter;fontSource=https%3A%2F%2Ffonts.googleapis.com%2Fcss%3Ffamily%3DArchitects%2BDaughter;fillColor=#dae8fc;strokeColor=#6c8ebf;" parent="1" vertex="1">
          <mxGeometry x="310" y="820" width="80" height="30" as="geometry" />
        </mxCell>
        <mxCell id="glC73n-N2dMUQhjcY6fc-20" value="function" style="rounded=0;whiteSpace=wrap;html=1;sketch=1;fontFamily=Architects Daughter;fontSource=https%3A%2F%2Ffonts.googleapis.com%2Fcss%3Ffamily%3DArchitects%2BDaughter;fillColor=#d5e8d4;strokeColor=#82b366;fillStyle=solid;" parent="1" vertex="1">
          <mxGeometry x="230" y="820" width="80" height="30" as="geometry" />
        </mxCell>
        <mxCell id="glC73n-N2dMUQhjcY6fc-21" value="&lt;p&gt;&lt;span style=&quot;font-size: 10px;&quot;&gt;Takes byte-array and creates a python object&lt;/span&gt;&lt;/p&gt;" style="text;html=1;strokeColor=#d6b656;fillColor=#fff2cc;spacing=5;spacingTop=-20;whiteSpace=wrap;overflow=hidden;rounded=0;sketch=1;fillStyle=solid;fontFamily=Architects Daughter;fontSource=https%3A%2F%2Ffonts.googleapis.com%2Fcss%3Ffamily%3DArchitects%2BDaughter;" parent="1" vertex="1">
          <mxGeometry x="445" y="790" width="200" height="30" as="geometry" />
        </mxCell>
        <mxCell id="glC73n-N2dMUQhjcY6fc-23" value="&lt;p&gt;&lt;span style=&quot;font-size: 10px;&quot;&gt;Returns current object as byte array ready to be sent to socket&lt;/span&gt;&lt;/p&gt;" style="text;html=1;strokeColor=#d6b656;fillColor=#fff2cc;spacing=5;spacingTop=-20;whiteSpace=wrap;overflow=hidden;rounded=0;sketch=1;fillStyle=solid;fontFamily=Architects Daughter;fontSource=https%3A%2F%2Ffonts.googleapis.com%2Fcss%3Ffamily%3DArchitects%2BDaughter;" parent="1" vertex="1">
          <mxGeometry x="445" y="850" width="200" height="30" as="geometry" />
        </mxCell>
        <mxCell id="glC73n-N2dMUQhjcY6fc-26" value="_counter" style="rounded=0;whiteSpace=wrap;html=1;sketch=1;fontFamily=Architects Daughter;fontSource=https%3A%2F%2Ffonts.googleapis.com%2Fcss%3Ffamily%3DArchitects%2BDaughter;" parent="1" vertex="1">
          <mxGeometry x="150" y="880" width="80" height="30" as="geometry" />
        </mxCell>
        <mxCell id="glC73n-N2dMUQhjcY6fc-31" style="edgeStyle=orthogonalEdgeStyle;rounded=1;sketch=1;jumpStyle=none;orthogonalLoop=1;jettySize=auto;html=1;entryX=0;entryY=0.5;entryDx=0;entryDy=0;endArrow=none;endFill=0;" parent="1" source="glC73n-N2dMUQhjcY6fc-27" target="glC73n-N2dMUQhjcY6fc-30" edge="1">
          <mxGeometry relative="1" as="geometry" />
        </mxCell>
        <mxCell id="glC73n-N2dMUQhjcY6fc-27" value="Int" style="rounded=0;whiteSpace=wrap;html=1;sketch=1;fontFamily=Architects Daughter;fontSource=https%3A%2F%2Ffonts.googleapis.com%2Fcss%3Ffamily%3DArchitects%2BDaughter;fillColor=#f8cecc;strokeColor=#b85450;" parent="1" vertex="1">
          <mxGeometry x="230" y="880" width="80" height="30" as="geometry" />
        </mxCell>
        <mxCell id="glC73n-N2dMUQhjcY6fc-28" value="_protocol" style="rounded=0;whiteSpace=wrap;html=1;sketch=1;fontFamily=Architects Daughter;fontSource=https%3A%2F%2Ffonts.googleapis.com%2Fcss%3Ffamily%3DArchitects%2BDaughter;" parent="1" vertex="1">
          <mxGeometry x="150" y="910" width="80" height="30" as="geometry" />
        </mxCell>
        <mxCell id="glC73n-N2dMUQhjcY6fc-29" value="Int" style="rounded=0;whiteSpace=wrap;html=1;sketch=1;fontFamily=Architects Daughter;fontSource=https%3A%2F%2Ffonts.googleapis.com%2Fcss%3Ffamily%3DArchitects%2BDaughter;fillColor=#f8cecc;strokeColor=#b85450;" parent="1" vertex="1">
          <mxGeometry x="230" y="910" width="80" height="30" as="geometry" />
        </mxCell>
        <mxCell id="glC73n-N2dMUQhjcY6fc-30" value="&lt;p&gt;&lt;span style=&quot;font-size: 10px;&quot;&gt;Non zero value will enable counter functionality to discard too late packages&lt;/span&gt;&lt;/p&gt;" style="text;html=1;strokeColor=#d6b656;fillColor=#fff2cc;spacing=5;spacingTop=-20;whiteSpace=wrap;overflow=hidden;rounded=0;sketch=1;fillStyle=solid;fontFamily=Architects Daughter;fontSource=https%3A%2F%2Ffonts.googleapis.com%2Fcss%3Ffamily%3DArchitects%2BDaughter;" parent="1" vertex="1">
          <mxGeometry x="445" y="890" width="200" height="50" as="geometry" />
        </mxCell>
        <mxCell id="glC73n-N2dMUQhjcY6fc-32" value="&lt;p&gt;&lt;span style=&quot;font-size: 10px;&quot;&gt;proto id&lt;/span&gt;&lt;/p&gt;" style="text;html=1;strokeColor=#d6b656;fillColor=#fff2cc;spacing=5;spacingTop=-20;whiteSpace=wrap;overflow=hidden;rounded=0;sketch=1;fillStyle=solid;fontFamily=Architects Daughter;fontSource=https%3A%2F%2Ffonts.googleapis.com%2Fcss%3Ffamily%3DArchitects%2BDaughter;" parent="1" vertex="1">
          <mxGeometry x="445" y="950" width="200" height="50" as="geometry" />
        </mxCell>
        <mxCell id="glC73n-N2dMUQhjcY6fc-57" value="payload" style="rounded=0;whiteSpace=wrap;html=1;sketch=1;fontFamily=Architects Daughter;fontSource=https%3A%2F%2Ffonts.googleapis.com%2Fcss%3Ffamily%3DArchitects%2BDaughter;" parent="1" vertex="1">
          <mxGeometry x="150" y="940" width="80" height="30" as="geometry" />
        </mxCell>
        <mxCell id="glC73n-N2dMUQhjcY6fc-59" style="edgeStyle=orthogonalEdgeStyle;rounded=1;sketch=1;jumpStyle=none;orthogonalLoop=1;jettySize=auto;html=1;entryX=0.5;entryY=1;entryDx=0;entryDy=0;endArrow=none;endFill=0;" parent="1" source="glC73n-N2dMUQhjcY6fc-58" target="6gGuHzRQzGazjfxGGEVp-233" edge="1">
          <mxGeometry relative="1" as="geometry">
            <Array as="points">
              <mxPoint x="275" y="1020" />
              <mxPoint x="670" y="1020" />
            </Array>
          </mxGeometry>
        </mxCell>
        <mxCell id="glC73n-N2dMUQhjcY6fc-58" value="STRING" style="rounded=0;whiteSpace=wrap;html=1;sketch=1;fontFamily=Architects Daughter;fontSource=https%3A%2F%2Ffonts.googleapis.com%2Fcss%3Ffamily%3DArchitects%2BDaughter;fillColor=#dae8fc;strokeColor=#6c8ebf;" parent="1" vertex="1">
          <mxGeometry x="230" y="940" width="80" height="30" as="geometry" />
        </mxCell>
        <mxCell id="glC73n-N2dMUQhjcY6fc-64" style="edgeStyle=orthogonalEdgeStyle;rounded=1;sketch=1;jumpStyle=none;orthogonalLoop=1;jettySize=auto;html=1;entryX=0;entryY=0.5;entryDx=0;entryDy=0;endArrow=classic;endFill=1;" parent="1" source="glC73n-N2dMUQhjcY6fc-62" target="glC73n-N2dMUQhjcY6fc-63" edge="1">
          <mxGeometry relative="1" as="geometry" />
        </mxCell>
        <mxCell id="glC73n-N2dMUQhjcY6fc-62" value="" style="rounded=0;whiteSpace=wrap;html=1;fillColor=#050505;" parent="1" vertex="1">
          <mxGeometry x="470" y="330" width="160" height="10" as="geometry" />
        </mxCell>
        <mxCell id="glC73n-N2dMUQhjcY6fc-63" value="" style="rounded=0;whiteSpace=wrap;html=1;fillColor=#050505;" parent="1" vertex="1">
          <mxGeometry x="790" y="330" width="160" height="10" as="geometry" />
        </mxCell>
        <mxCell id="wwri12M4P4pAhS-KatHB-1" style="edgeStyle=orthogonalEdgeStyle;rounded=0;sketch=1;jumpStyle=arc;jumpSize=6;orthogonalLoop=1;jettySize=auto;html=1;entryX=0.5;entryY=0;entryDx=0;entryDy=0;fontFamily=Architects Daughter;fontSource=https%3A%2F%2Ffonts.googleapis.com%2Fcss%3Ffamily%3DArchitects%2BDaughter;" edge="1" parent="1" source="wwri12M4P4pAhS-KatHB-2" target="wwri12M4P4pAhS-KatHB-5">
          <mxGeometry relative="1" as="geometry">
            <Array as="points">
              <mxPoint x="-476" y="1470" />
            </Array>
          </mxGeometry>
        </mxCell>
        <mxCell id="wwri12M4P4pAhS-KatHB-2" value="Socket listener&lt;br&gt;(with plugin)" style="rounded=0;whiteSpace=wrap;html=1;glass=0;sketch=1;fontFamily=Architects Daughter;fontSource=https%3A%2F%2Ffonts.googleapis.com%2Fcss%3Ffamily%3DArchitects%2BDaughter;" vertex="1" parent="1">
          <mxGeometry x="-720" y="1450" width="120" height="40" as="geometry" />
        </mxCell>
        <mxCell id="wwri12M4P4pAhS-KatHB-3" style="edgeStyle=orthogonalEdgeStyle;rounded=0;sketch=1;jumpStyle=arc;jumpSize=6;orthogonalLoop=1;jettySize=auto;html=1;entryX=0.331;entryY=1.009;entryDx=0;entryDy=0;fontFamily=Architects Daughter;fontSource=https%3A%2F%2Ffonts.googleapis.com%2Fcss%3Ffamily%3DArchitects%2BDaughter;startArrow=none;startFill=0;entryPerimeter=0;" edge="1" parent="1" source="wwri12M4P4pAhS-KatHB-5" target="wwri12M4P4pAhS-KatHB-10">
          <mxGeometry relative="1" as="geometry">
            <Array as="points">
              <mxPoint x="-330" y="1520" />
            </Array>
          </mxGeometry>
        </mxCell>
        <mxCell id="wwri12M4P4pAhS-KatHB-4" style="edgeStyle=orthogonalEdgeStyle;rounded=0;sketch=1;jumpStyle=arc;jumpSize=6;orthogonalLoop=1;jettySize=auto;html=1;entryX=0.333;entryY=-0.008;entryDx=0;entryDy=0;fontFamily=Architects Daughter;fontSource=https%3A%2F%2Ffonts.googleapis.com%2Fcss%3Ffamily%3DArchitects%2BDaughter;startArrow=none;startFill=0;entryPerimeter=0;" edge="1" parent="1" source="wwri12M4P4pAhS-KatHB-5" target="wwri12M4P4pAhS-KatHB-15">
          <mxGeometry relative="1" as="geometry">
            <Array as="points">
              <mxPoint x="-330" y="1520" />
            </Array>
          </mxGeometry>
        </mxCell>
        <mxCell id="wwri12M4P4pAhS-KatHB-5" value="Node (Command)" style="rounded=0;whiteSpace=wrap;html=1;glass=0;sketch=1;fontFamily=Architects Daughter;fontSource=https%3A%2F%2Ffonts.googleapis.com%2Fcss%3Ffamily%3DArchitects%2BDaughter;" vertex="1" parent="1">
          <mxGeometry x="-536" y="1500" width="120" height="40" as="geometry" />
        </mxCell>
        <mxCell id="wwri12M4P4pAhS-KatHB-6" style="edgeStyle=orthogonalEdgeStyle;rounded=0;sketch=1;jumpStyle=arc;jumpSize=6;orthogonalLoop=1;jettySize=auto;html=1;fontFamily=Architects Daughter;fontSource=https%3A%2F%2Ffonts.googleapis.com%2Fcss%3Ffamily%3DArchitects%2BDaughter;startArrow=none;startFill=0;entryX=0;entryY=0.5;entryDx=0;entryDy=0;" edge="1" parent="1" source="wwri12M4P4pAhS-KatHB-7" target="wwri12M4P4pAhS-KatHB-5">
          <mxGeometry relative="1" as="geometry">
            <mxPoint x="-590" y="1470" as="targetPoint" />
            <Array as="points">
              <mxPoint x="-690" y="1520" />
              <mxPoint x="-690" y="1520" />
            </Array>
          </mxGeometry>
        </mxCell>
        <mxCell id="wwri12M4P4pAhS-KatHB-7" value="DoDC serial IO" style="rounded=0;whiteSpace=wrap;html=1;glass=0;sketch=1;fontFamily=Architects Daughter;fontSource=https%3A%2F%2Ffonts.googleapis.com%2Fcss%3Ffamily%3DArchitects%2BDaughter;" vertex="1" parent="1">
          <mxGeometry x="-720" y="1500" width="120" height="40" as="geometry" />
        </mxCell>
        <mxCell id="wwri12M4P4pAhS-KatHB-8" style="edgeStyle=orthogonalEdgeStyle;rounded=0;sketch=1;jumpStyle=arc;jumpSize=6;orthogonalLoop=1;jettySize=auto;html=1;fontFamily=Architects Daughter;fontSource=https%3A%2F%2Ffonts.googleapis.com%2Fcss%3Ffamily%3DArchitects%2BDaughter;startArrow=none;startFill=0;" edge="1" parent="1" source="wwri12M4P4pAhS-KatHB-9">
          <mxGeometry relative="1" as="geometry">
            <mxPoint x="-520" y="1540" as="targetPoint" />
            <Array as="points">
              <mxPoint x="-520" y="1570" />
              <mxPoint x="-520" y="1540" />
            </Array>
          </mxGeometry>
        </mxCell>
        <mxCell id="wwri12M4P4pAhS-KatHB-9" value="BLE serial" style="rounded=0;whiteSpace=wrap;html=1;glass=0;sketch=1;fontFamily=Architects Daughter;fontSource=https%3A%2F%2Ffonts.googleapis.com%2Fcss%3Ffamily%3DArchitects%2BDaughter;" vertex="1" parent="1">
          <mxGeometry x="-720" y="1550" width="120" height="40" as="geometry" />
        </mxCell>
        <mxCell id="wwri12M4P4pAhS-KatHB-10" value="Socket sender" style="rounded=0;whiteSpace=wrap;html=1;glass=0;sketch=1;fontFamily=Architects Daughter;fontSource=https%3A%2F%2Ffonts.googleapis.com%2Fcss%3Ffamily%3DArchitects%2BDaughter;" vertex="1" parent="1">
          <mxGeometry x="-370" y="1450" width="120" height="40" as="geometry" />
        </mxCell>
        <mxCell id="wwri12M4P4pAhS-KatHB-11" style="edgeStyle=orthogonalEdgeStyle;rounded=0;orthogonalLoop=1;jettySize=auto;html=1;entryX=0.25;entryY=1;entryDx=0;entryDy=0;fontFamily=Architects Daughter;fontSource=https%3A%2F%2Ffonts.googleapis.com%2Fcss%3Ffamily%3DArchitects%2BDaughter;startArrow=none;startFill=0;sketch=1;" edge="1" parent="1" source="wwri12M4P4pAhS-KatHB-12" target="wwri12M4P4pAhS-KatHB-5">
          <mxGeometry relative="1" as="geometry" />
        </mxCell>
        <mxCell id="wwri12M4P4pAhS-KatHB-12" value="DMX/RDM" style="rounded=0;whiteSpace=wrap;html=1;glass=0;sketch=1;fontFamily=Architects Daughter;fontSource=https%3A%2F%2Ffonts.googleapis.com%2Fcss%3Ffamily%3DArchitects%2BDaughter;" vertex="1" parent="1">
          <mxGeometry x="-720" y="1600" width="120" height="40" as="geometry" />
        </mxCell>
        <mxCell id="wwri12M4P4pAhS-KatHB-13" style="edgeStyle=orthogonalEdgeStyle;rounded=0;sketch=1;orthogonalLoop=1;jettySize=auto;html=1;entryX=0.398;entryY=1.001;entryDx=0;entryDy=0;entryPerimeter=0;fontFamily=Architects Daughter;fontSource=https%3A%2F%2Ffonts.googleapis.com%2Fcss%3Ffamily%3DArchitects%2BDaughter;startArrow=none;startFill=0;" edge="1" parent="1" source="wwri12M4P4pAhS-KatHB-14" target="wwri12M4P4pAhS-KatHB-5">
          <mxGeometry relative="1" as="geometry" />
        </mxCell>
        <mxCell id="wwri12M4P4pAhS-KatHB-14" value="USB" style="rounded=0;whiteSpace=wrap;html=1;glass=0;sketch=1;fontFamily=Architects Daughter;fontSource=https%3A%2F%2Ffonts.googleapis.com%2Fcss%3Ffamily%3DArchitects%2BDaughter;" vertex="1" parent="1">
          <mxGeometry x="-720" y="1650" width="120" height="40" as="geometry" />
        </mxCell>
        <mxCell id="wwri12M4P4pAhS-KatHB-15" value="Update node props" style="rounded=0;whiteSpace=wrap;html=1;glass=0;sketch=1;fontFamily=Architects Daughter;fontSource=https%3A%2F%2Ffonts.googleapis.com%2Fcss%3Ffamily%3DArchitects%2BDaughter;" vertex="1" parent="1">
          <mxGeometry x="-370" y="1550" width="120" height="40" as="geometry" />
        </mxCell>
        <mxCell id="wwri12M4P4pAhS-KatHB-16" value="&lt;h1&gt;input_thread&lt;/h1&gt;&lt;p&gt;All inputs to manage node properties are read from buffer here, validated and sent to repl&lt;/p&gt;&lt;p&gt;Rendundancy and error handeling happens within these modules&lt;/p&gt;&lt;p&gt;If necessary we can limit the nr of active modules&lt;/p&gt;" style="text;html=1;strokeColor=none;fillColor=none;spacing=5;spacingTop=-20;whiteSpace=wrap;overflow=hidden;rounded=0;fontFamily=Architects Daughter;fontSource=https%3A%2F%2Ffonts.googleapis.com%2Fcss%3Ffamily%3DArchitects%2BDaughter;" vertex="1" parent="1">
          <mxGeometry x="-720" y="1760" width="170" height="260" as="geometry" />
        </mxCell>
        <mxCell id="wwri12M4P4pAhS-KatHB-17" value="&lt;h1&gt;custom_thread&lt;/h1&gt;&lt;p&gt;Everything about customization and IO happens here&lt;/p&gt;" style="text;html=1;strokeColor=none;fillColor=none;spacing=5;spacingTop=-20;whiteSpace=wrap;overflow=hidden;rounded=0;fontFamily=Architects Daughter;fontSource=https%3A%2F%2Ffonts.googleapis.com%2Fcss%3Ffamily%3DArchitects%2BDaughter;" vertex="1" parent="1">
          <mxGeometry x="-536" y="1320" width="286" height="120" as="geometry" />
        </mxCell>
        <mxCell id="wwri12M4P4pAhS-KatHB-18" value="&lt;h1&gt;node_thread&lt;/h1&gt;&lt;p&gt;All properties updating happens here. Most of this is built in code ie red channel management, temp reading etc.&lt;/p&gt;" style="text;html=1;strokeColor=none;fillColor=none;spacing=5;spacingTop=-20;whiteSpace=wrap;overflow=hidden;rounded=0;fontFamily=Architects Daughter;fontSource=https%3A%2F%2Ffonts.googleapis.com%2Fcss%3Ffamily%3DArchitects%2BDaughter;" vertex="1" parent="1">
          <mxGeometry x="-230" y="1320" width="170" height="120" as="geometry" />
        </mxCell>
        <mxCell id="wwri12M4P4pAhS-KatHB-19" style="edgeStyle=orthogonalEdgeStyle;rounded=0;sketch=1;orthogonalLoop=1;jettySize=auto;html=1;entryX=0.556;entryY=1.071;entryDx=0;entryDy=0;entryPerimeter=0;fontFamily=Architects Daughter;fontSource=https%3A%2F%2Ffonts.googleapis.com%2Fcss%3Ffamily%3DArchitects%2BDaughter;startArrow=none;startFill=0;" edge="1" parent="1" source="wwri12M4P4pAhS-KatHB-20" target="wwri12M4P4pAhS-KatHB-5">
          <mxGeometry relative="1" as="geometry" />
        </mxCell>
        <mxCell id="wwri12M4P4pAhS-KatHB-20" value="Button" style="rounded=0;whiteSpace=wrap;html=1;glass=0;sketch=1;fontFamily=Architects Daughter;fontSource=https%3A%2F%2Ffonts.googleapis.com%2Fcss%3Ffamily%3DArchitects%2BDaughter;" vertex="1" parent="1">
          <mxGeometry x="-720" y="1700" width="120" height="40" as="geometry" />
        </mxCell>
        <mxCell id="wwri12M4P4pAhS-KatHB-21" value="Execute all prop updates" style="rounded=0;whiteSpace=wrap;html=1;glass=0;sketch=1;fontFamily=Architects Daughter;fontSource=https%3A%2F%2Ffonts.googleapis.com%2Fcss%3Ffamily%3DArchitects%2BDaughter;" vertex="1" parent="1">
          <mxGeometry x="-220" y="1480" width="120" height="40" as="geometry" />
        </mxCell>
        <UserObject label="Node Raw" id="wwri12M4P4pAhS-KatHB-22">
          <mxCell style="rounded=0;whiteSpace=wrap;html=1;sketch=1;fontFamily=Architects Daughter;fontSource=https%3A%2F%2Ffonts.googleapis.com%2Fcss%3Ffamily%3DArchitects%2BDaughter;" vertex="1" parent="1">
            <mxGeometry x="110" y="1090" width="120" height="30" as="geometry" />
          </mxCell>
        </UserObject>
        <mxCell id="wwri12M4P4pAhS-KatHB-23" value="__init__" style="rounded=0;whiteSpace=wrap;html=1;sketch=1;fontFamily=Architects Daughter;fontSource=https%3A%2F%2Ffonts.googleapis.com%2Fcss%3Ffamily%3DArchitects%2BDaughter;" vertex="1" parent="1">
          <mxGeometry x="150" y="1130" width="80" height="30" as="geometry" />
        </mxCell>
        <mxCell id="wwri12M4P4pAhS-KatHB-24" style="edgeStyle=orthogonalEdgeStyle;orthogonalLoop=1;jettySize=auto;html=1;sketch=1;endArrow=none;endFill=0;curved=1;" edge="1" parent="1" source="wwri12M4P4pAhS-KatHB-25" target="wwri12M4P4pAhS-KatHB-35">
          <mxGeometry relative="1" as="geometry" />
        </mxCell>
        <mxCell id="wwri12M4P4pAhS-KatHB-25" value="STRING" style="rounded=0;whiteSpace=wrap;html=1;sketch=1;fontFamily=Architects Daughter;fontSource=https%3A%2F%2Ffonts.googleapis.com%2Fcss%3Ffamily%3DArchitects%2BDaughter;fillColor=#dae8fc;strokeColor=#6c8ebf;" vertex="1" parent="1">
          <mxGeometry x="310" y="1130" width="80" height="30" as="geometry" />
        </mxCell>
        <mxCell id="wwri12M4P4pAhS-KatHB-26" value="get" style="rounded=0;whiteSpace=wrap;html=1;sketch=1;fontFamily=Architects Daughter;fontSource=https%3A%2F%2Ffonts.googleapis.com%2Fcss%3Ffamily%3DArchitects%2BDaughter;" vertex="1" parent="1">
          <mxGeometry x="150" y="1190" width="80" height="30" as="geometry" />
        </mxCell>
        <mxCell id="wwri12M4P4pAhS-KatHB-27" value="function" style="rounded=0;whiteSpace=wrap;html=1;sketch=1;fontFamily=Architects Daughter;fontSource=https%3A%2F%2Ffonts.googleapis.com%2Fcss%3Ffamily%3DArchitects%2BDaughter;fillColor=#d5e8d4;strokeColor=#82b366;fillStyle=solid;" vertex="1" parent="1">
          <mxGeometry x="230" y="1130" width="80" height="30" as="geometry" />
        </mxCell>
        <mxCell id="wwri12M4P4pAhS-KatHB-28" value="set" style="rounded=0;whiteSpace=wrap;html=1;sketch=1;fontFamily=Architects Daughter;fontSource=https%3A%2F%2Ffonts.googleapis.com%2Fcss%3Ffamily%3DArchitects%2BDaughter;" vertex="1" parent="1">
          <mxGeometry x="150" y="1160" width="80" height="30" as="geometry" />
        </mxCell>
        <mxCell id="wwri12M4P4pAhS-KatHB-29" style="edgeStyle=orthogonalEdgeStyle;curved=1;sketch=1;orthogonalLoop=1;jettySize=auto;html=1;endArrow=none;endFill=0;" edge="1" parent="1" source="wwri12M4P4pAhS-KatHB-30" target="wwri12M4P4pAhS-KatHB-36">
          <mxGeometry relative="1" as="geometry" />
        </mxCell>
        <mxCell id="wwri12M4P4pAhS-KatHB-30" value="function" style="rounded=0;whiteSpace=wrap;html=1;sketch=1;fontFamily=Architects Daughter;fontSource=https%3A%2F%2Ffonts.googleapis.com%2Fcss%3Ffamily%3DArchitects%2BDaughter;fillColor=#d5e8d4;strokeColor=#82b366;fillStyle=solid;" vertex="1" parent="1">
          <mxGeometry x="230" y="1190" width="80" height="30" as="geometry" />
        </mxCell>
        <mxCell id="wwri12M4P4pAhS-KatHB-31" value="&lt;p&gt;&lt;span style=&quot;font-size: 10px;&quot;&gt;Node Raw packet is Empire Node payload with protocol version and checksum to be used with UART or other non error corrected communications&lt;/span&gt;&lt;/p&gt;" style="text;html=1;strokeColor=#d6b656;fillColor=#fff2cc;spacing=5;spacingTop=-20;whiteSpace=wrap;overflow=hidden;rounded=0;sketch=1;fillStyle=solid;fontFamily=Architects Daughter;fontSource=https%3A%2F%2Ffonts.googleapis.com%2Fcss%3Ffamily%3DArchitects%2BDaughter;" vertex="1" parent="1">
          <mxGeometry x="110" y="1050" width="280" height="30" as="geometry" />
        </mxCell>
        <mxCell id="wwri12M4P4pAhS-KatHB-32" style="edgeStyle=orthogonalEdgeStyle;sketch=1;orthogonalLoop=1;jettySize=auto;html=1;entryX=0;entryY=0.5;entryDx=0;entryDy=0;endArrow=none;endFill=0;rounded=1;jumpStyle=none;" edge="1" parent="1" source="wwri12M4P4pAhS-KatHB-33" target="wwri12M4P4pAhS-KatHB-35">
          <mxGeometry relative="1" as="geometry" />
        </mxCell>
        <mxCell id="wwri12M4P4pAhS-KatHB-33" value="STRING" style="rounded=0;whiteSpace=wrap;html=1;sketch=1;fontFamily=Architects Daughter;fontSource=https%3A%2F%2Ffonts.googleapis.com%2Fcss%3Ffamily%3DArchitects%2BDaughter;fillColor=#dae8fc;strokeColor=#6c8ebf;" vertex="1" parent="1">
          <mxGeometry x="310" y="1160" width="80" height="30" as="geometry" />
        </mxCell>
        <mxCell id="wwri12M4P4pAhS-KatHB-34" value="function" style="rounded=0;whiteSpace=wrap;html=1;sketch=1;fontFamily=Architects Daughter;fontSource=https%3A%2F%2Ffonts.googleapis.com%2Fcss%3Ffamily%3DArchitects%2BDaughter;fillColor=#d5e8d4;strokeColor=#82b366;fillStyle=solid;" vertex="1" parent="1">
          <mxGeometry x="230" y="1160" width="80" height="30" as="geometry" />
        </mxCell>
        <mxCell id="wwri12M4P4pAhS-KatHB-35" value="&lt;p&gt;&lt;span style=&quot;font-size: 10px;&quot;&gt;Takes byte-array and creates a python object, should contain footer with letters EN, 8bit int version, CRC8&lt;/span&gt;&lt;/p&gt;" style="text;html=1;strokeColor=#d6b656;fillColor=#fff2cc;spacing=5;spacingTop=-20;whiteSpace=wrap;overflow=hidden;rounded=0;sketch=1;fillStyle=solid;fontFamily=Architects Daughter;fontSource=https%3A%2F%2Ffonts.googleapis.com%2Fcss%3Ffamily%3DArchitects%2BDaughter;" vertex="1" parent="1">
          <mxGeometry x="445" y="1130" width="200" height="50" as="geometry" />
        </mxCell>
        <mxCell id="wwri12M4P4pAhS-KatHB-36" value="&lt;p&gt;&lt;span style=&quot;font-size: 10px;&quot;&gt;Returns current object as byte array ready to be sent to socket&lt;/span&gt;&lt;/p&gt;" style="text;html=1;strokeColor=#d6b656;fillColor=#fff2cc;spacing=5;spacingTop=-20;whiteSpace=wrap;overflow=hidden;rounded=0;sketch=1;fillStyle=solid;fontFamily=Architects Daughter;fontSource=https%3A%2F%2Ffonts.googleapis.com%2Fcss%3Ffamily%3DArchitects%2BDaughter;" vertex="1" parent="1">
          <mxGeometry x="445" y="1190" width="200" height="30" as="geometry" />
        </mxCell>
        <mxCell id="wwri12M4P4pAhS-KatHB-37" value="_checksum" style="rounded=0;whiteSpace=wrap;html=1;sketch=1;fontFamily=Architects Daughter;fontSource=https%3A%2F%2Ffonts.googleapis.com%2Fcss%3Ffamily%3DArchitects%2BDaughter;" vertex="1" parent="1">
          <mxGeometry x="150" y="1220" width="80" height="30" as="geometry" />
        </mxCell>
        <mxCell id="wwri12M4P4pAhS-KatHB-38" style="edgeStyle=orthogonalEdgeStyle;rounded=1;sketch=1;jumpStyle=none;orthogonalLoop=1;jettySize=auto;html=1;entryX=0;entryY=0.5;entryDx=0;entryDy=0;endArrow=none;endFill=0;" edge="1" parent="1" source="wwri12M4P4pAhS-KatHB-39" target="wwri12M4P4pAhS-KatHB-42">
          <mxGeometry relative="1" as="geometry" />
        </mxCell>
        <mxCell id="wwri12M4P4pAhS-KatHB-39" value="Int" style="rounded=0;whiteSpace=wrap;html=1;sketch=1;fontFamily=Architects Daughter;fontSource=https%3A%2F%2Ffonts.googleapis.com%2Fcss%3Ffamily%3DArchitects%2BDaughter;fillColor=#f8cecc;strokeColor=#b85450;" vertex="1" parent="1">
          <mxGeometry x="230" y="1220" width="80" height="30" as="geometry" />
        </mxCell>
        <mxCell id="wwri12M4P4pAhS-KatHB-40" value="_protocol" style="rounded=0;whiteSpace=wrap;html=1;sketch=1;fontFamily=Architects Daughter;fontSource=https%3A%2F%2Ffonts.googleapis.com%2Fcss%3Ffamily%3DArchitects%2BDaughter;" vertex="1" parent="1">
          <mxGeometry x="150" y="1250" width="80" height="30" as="geometry" />
        </mxCell>
        <mxCell id="wwri12M4P4pAhS-KatHB-46" style="edgeStyle=orthogonalEdgeStyle;rounded=1;orthogonalLoop=1;jettySize=auto;html=1;entryX=0;entryY=0.5;entryDx=0;entryDy=0;sketch=1;endArrow=none;endFill=0;" edge="1" parent="1" source="wwri12M4P4pAhS-KatHB-41" target="wwri12M4P4pAhS-KatHB-43">
          <mxGeometry relative="1" as="geometry" />
        </mxCell>
        <mxCell id="wwri12M4P4pAhS-KatHB-41" value="Int" style="rounded=0;whiteSpace=wrap;html=1;sketch=1;fontFamily=Architects Daughter;fontSource=https%3A%2F%2Ffonts.googleapis.com%2Fcss%3Ffamily%3DArchitects%2BDaughter;fillColor=#f8cecc;strokeColor=#b85450;" vertex="1" parent="1">
          <mxGeometry x="230" y="1250" width="80" height="30" as="geometry" />
        </mxCell>
        <mxCell id="wwri12M4P4pAhS-KatHB-42" value="&lt;p&gt;&lt;span style=&quot;font-size: 10px;&quot;&gt;CRC8 for the current package&lt;/span&gt;&lt;/p&gt;" style="text;html=1;strokeColor=#d6b656;fillColor=#fff2cc;spacing=5;spacingTop=-20;whiteSpace=wrap;overflow=hidden;rounded=0;sketch=1;fillStyle=solid;fontFamily=Architects Daughter;fontSource=https%3A%2F%2Ffonts.googleapis.com%2Fcss%3Ffamily%3DArchitects%2BDaughter;" vertex="1" parent="1">
          <mxGeometry x="445" y="1240" width="200" height="20" as="geometry" />
        </mxCell>
        <mxCell id="wwri12M4P4pAhS-KatHB-43" value="&lt;p&gt;&lt;span style=&quot;font-size: 10px;&quot;&gt;proto id&lt;/span&gt;&lt;/p&gt;" style="text;html=1;strokeColor=#d6b656;fillColor=#fff2cc;spacing=5;spacingTop=-20;whiteSpace=wrap;overflow=hidden;rounded=0;sketch=1;fillStyle=solid;fontFamily=Architects Daughter;fontSource=https%3A%2F%2Ffonts.googleapis.com%2Fcss%3Ffamily%3DArchitects%2BDaughter;" vertex="1" parent="1">
          <mxGeometry x="445" y="1270" width="200" height="20" as="geometry" />
        </mxCell>
        <mxCell id="wwri12M4P4pAhS-KatHB-44" value="payload" style="rounded=0;whiteSpace=wrap;html=1;sketch=1;fontFamily=Architects Daughter;fontSource=https%3A%2F%2Ffonts.googleapis.com%2Fcss%3Ffamily%3DArchitects%2BDaughter;" vertex="1" parent="1">
          <mxGeometry x="150" y="1280" width="80" height="30" as="geometry" />
        </mxCell>
        <mxCell id="wwri12M4P4pAhS-KatHB-47" style="edgeStyle=orthogonalEdgeStyle;rounded=1;sketch=1;orthogonalLoop=1;jettySize=auto;html=1;entryX=0.5;entryY=1;entryDx=0;entryDy=0;endArrow=none;endFill=0;" edge="1" parent="1" source="wwri12M4P4pAhS-KatHB-45" target="6gGuHzRQzGazjfxGGEVp-233">
          <mxGeometry relative="1" as="geometry">
            <Array as="points">
              <mxPoint x="280" y="1330" />
              <mxPoint x="670" y="1330" />
            </Array>
          </mxGeometry>
        </mxCell>
        <mxCell id="wwri12M4P4pAhS-KatHB-45" value="STRING" style="rounded=0;whiteSpace=wrap;html=1;sketch=1;fontFamily=Architects Daughter;fontSource=https%3A%2F%2Ffonts.googleapis.com%2Fcss%3Ffamily%3DArchitects%2BDaughter;fillColor=#dae8fc;strokeColor=#6c8ebf;" vertex="1" parent="1">
          <mxGeometry x="230" y="1280" width="80" height="30" as="geometry" />
        </mxCell>
        <UserObject label="Node Thread" id="wwri12M4P4pAhS-KatHB-48">
          <mxCell style="rounded=0;whiteSpace=wrap;html=1;sketch=1;fontFamily=Architects Daughter;fontSource=https%3A%2F%2Ffonts.googleapis.com%2Fcss%3Ffamily%3DArchitects%2BDaughter;" vertex="1" parent="1">
            <mxGeometry x="110" y="1400" width="120" height="30" as="geometry" />
          </mxCell>
        </UserObject>
        <mxCell id="wwri12M4P4pAhS-KatHB-49" value="task_list" style="rounded=0;whiteSpace=wrap;html=1;sketch=1;fontFamily=Architects Daughter;fontSource=https%3A%2F%2Ffonts.googleapis.com%2Fcss%3Ffamily%3DArchitects%2BDaughter;" vertex="1" parent="1">
          <mxGeometry x="150" y="1440" width="80" height="30" as="geometry" />
        </mxCell>
        <mxCell id="wwri12M4P4pAhS-KatHB-51" value="add" style="rounded=0;whiteSpace=wrap;html=1;sketch=1;fontFamily=Architects Daughter;fontSource=https%3A%2F%2Ffonts.googleapis.com%2Fcss%3Ffamily%3DArchitects%2BDaughter;" vertex="1" parent="1">
          <mxGeometry x="150" y="1500" width="80" height="30" as="geometry" />
        </mxCell>
        <mxCell id="wwri12M4P4pAhS-KatHB-52" value="function" style="rounded=0;whiteSpace=wrap;html=1;sketch=1;fontFamily=Architects Daughter;fontSource=https%3A%2F%2Ffonts.googleapis.com%2Fcss%3Ffamily%3DArchitects%2BDaughter;fillColor=#d5e8d4;strokeColor=#82b366;fillStyle=solid;" vertex="1" parent="1">
          <mxGeometry x="230" y="1470" width="80" height="30" as="geometry" />
        </mxCell>
        <mxCell id="wwri12M4P4pAhS-KatHB-53" value="next" style="rounded=0;whiteSpace=wrap;html=1;sketch=1;fontFamily=Architects Daughter;fontSource=https%3A%2F%2Ffonts.googleapis.com%2Fcss%3Ffamily%3DArchitects%2BDaughter;" vertex="1" parent="1">
          <mxGeometry x="150" y="1470" width="80" height="30" as="geometry" />
        </mxCell>
        <mxCell id="wwri12M4P4pAhS-KatHB-54" value="function" style="rounded=0;whiteSpace=wrap;html=1;sketch=1;fontFamily=Architects Daughter;fontSource=https%3A%2F%2Ffonts.googleapis.com%2Fcss%3Ffamily%3DArchitects%2BDaughter;fillColor=#d5e8d4;strokeColor=#82b366;fillStyle=solid;" vertex="1" parent="1">
          <mxGeometry x="230" y="1530" width="80" height="30" as="geometry" />
        </mxCell>
        <mxCell id="wwri12M4P4pAhS-KatHB-56" value="function" style="rounded=0;whiteSpace=wrap;html=1;sketch=1;fontFamily=Architects Daughter;fontSource=https%3A%2F%2Ffonts.googleapis.com%2Fcss%3Ffamily%3DArchitects%2BDaughter;fillColor=#d5e8d4;strokeColor=#82b366;fillStyle=solid;" vertex="1" parent="1">
          <mxGeometry x="230" y="1500" width="80" height="30" as="geometry" />
        </mxCell>
        <mxCell id="wwri12M4P4pAhS-KatHB-57" value="remove" style="rounded=0;whiteSpace=wrap;html=1;sketch=1;fontFamily=Architects Daughter;fontSource=https%3A%2F%2Ffonts.googleapis.com%2Fcss%3Ffamily%3DArchitects%2BDaughter;" vertex="1" parent="1">
          <mxGeometry x="150" y="1530" width="80" height="30" as="geometry" />
        </mxCell>
        <mxCell id="wwri12M4P4pAhS-KatHB-58" value="Int" style="rounded=0;whiteSpace=wrap;html=1;sketch=1;fontFamily=Architects Daughter;fontSource=https%3A%2F%2Ffonts.googleapis.com%2Fcss%3Ffamily%3DArchitects%2BDaughter;fillColor=#f8cecc;strokeColor=#b85450;" vertex="1" parent="1">
          <mxGeometry x="310" y="1530" width="80" height="30" as="geometry" />
        </mxCell>
        <mxCell id="wwri12M4P4pAhS-KatHB-63" value="[FUNCTION]" style="rounded=0;whiteSpace=wrap;html=1;sketch=1;fontFamily=Architects Daughter;fontSource=https%3A%2F%2Ffonts.googleapis.com%2Fcss%3Ffamily%3DArchitects%2BDaughter;fillColor=#f8cecc;strokeColor=#b85450;fillStyle=solid;" vertex="1" parent="1">
          <mxGeometry x="230" y="1440" width="80" height="30" as="geometry" />
        </mxCell>
        <mxCell id="wwri12M4P4pAhS-KatHB-64" value="function" style="rounded=0;whiteSpace=wrap;html=1;sketch=1;fontFamily=Architects Daughter;fontSource=https%3A%2F%2Ffonts.googleapis.com%2Fcss%3Ffamily%3DArchitects%2BDaughter;fillColor=#d5e8d4;strokeColor=#82b366;fillStyle=solid;" vertex="1" parent="1">
          <mxGeometry x="310" y="1500" width="80" height="30" as="geometry" />
        </mxCell>
        <mxCell id="wwri12M4P4pAhS-KatHB-65" value="debug" style="rounded=0;whiteSpace=wrap;html=1;sketch=1;fontFamily=Architects Daughter;fontSource=https%3A%2F%2Ffonts.googleapis.com%2Fcss%3Ffamily%3DArchitects%2BDaughter;" vertex="1" parent="1">
          <mxGeometry x="150" y="110" width="80" height="30" as="geometry" />
        </mxCell>
        <mxCell id="wwri12M4P4pAhS-KatHB-66" value="last exec info" style="rounded=0;whiteSpace=wrap;html=1;sketch=1;fontFamily=Architects Daughter;fontSource=https%3A%2F%2Ffonts.googleapis.com%2Fcss%3Ffamily%3DArchitects%2BDaughter;" vertex="1" parent="1">
          <mxGeometry x="150" y="80" width="80" height="30" as="geometry" />
        </mxCell>
        <mxCell id="wwri12M4P4pAhS-KatHB-67" value="(OBJECT)" style="rounded=0;whiteSpace=wrap;html=1;sketch=1;fontFamily=Architects Daughter;fontSource=https%3A%2F%2Ffonts.googleapis.com%2Fcss%3Ffamily%3DArchitects%2BDaughter;fillColor=#f8cecc;strokeColor=#b85450;fillStyle=solid;" vertex="1" parent="1">
          <mxGeometry x="550" y="540" width="80" height="30" as="geometry" />
        </mxCell>
        <UserObject label="lim_list(list)" id="wwri12M4P4pAhS-KatHB-69">
          <mxCell style="rounded=0;whiteSpace=wrap;html=1;sketch=1;fontFamily=Architects Daughter;fontSource=https%3A%2F%2Ffonts.googleapis.com%2Fcss%3Ffamily%3DArchitects%2BDaughter;" vertex="1" parent="1">
            <mxGeometry x="740" y="1380" width="120" height="30" as="geometry" />
          </mxCell>
        </UserObject>
        <mxCell id="wwri12M4P4pAhS-KatHB-70" value="append" style="rounded=0;whiteSpace=wrap;html=1;sketch=1;fontFamily=Architects Daughter;fontSource=https%3A%2F%2Ffonts.googleapis.com%2Fcss%3Ffamily%3DArchitects%2BDaughter;" vertex="1" parent="1">
          <mxGeometry x="780" y="1420" width="80" height="30" as="geometry" />
        </mxCell>
        <mxCell id="wwri12M4P4pAhS-KatHB-80" value="+/-/*//" style="rounded=0;whiteSpace=wrap;html=1;sketch=1;fontFamily=Architects Daughter;fontSource=https%3A%2F%2Ffonts.googleapis.com%2Fcss%3Ffamily%3DArchitects%2BDaughter;" vertex="1" parent="1">
          <mxGeometry x="780" y="1450" width="80" height="30" as="geometry" />
        </mxCell>
        <mxCell id="wwri12M4P4pAhS-KatHB-81" value="insert" style="rounded=0;whiteSpace=wrap;html=1;sketch=1;fontFamily=Architects Daughter;fontSource=https%3A%2F%2Ffonts.googleapis.com%2Fcss%3Ffamily%3DArchitects%2BDaughter;" vertex="1" parent="1">
          <mxGeometry x="780" y="1480" width="80" height="30" as="geometry" />
        </mxCell>
        <mxCell id="wwri12M4P4pAhS-KatHB-82" value="extend" style="rounded=0;whiteSpace=wrap;html=1;sketch=1;fontFamily=Architects Daughter;fontSource=https%3A%2F%2Ffonts.googleapis.com%2Fcss%3Ffamily%3DArchitects%2BDaughter;" vertex="1" parent="1">
          <mxGeometry x="780" y="1510" width="80" height="30" as="geometry" />
        </mxCell>
        <mxCell id="wwri12M4P4pAhS-KatHB-83" value="function" style="rounded=0;whiteSpace=wrap;html=1;sketch=1;fontFamily=Architects Daughter;fontSource=https%3A%2F%2Ffonts.googleapis.com%2Fcss%3Ffamily%3DArchitects%2BDaughter;fillColor=#d5e8d4;strokeColor=#82b366;fillStyle=solid;" vertex="1" parent="1">
          <mxGeometry x="860" y="1420" width="80" height="30" as="geometry" />
        </mxCell>
        <mxCell id="wwri12M4P4pAhS-KatHB-84" value="function" style="rounded=0;whiteSpace=wrap;html=1;sketch=1;fontFamily=Architects Daughter;fontSource=https%3A%2F%2Ffonts.googleapis.com%2Fcss%3Ffamily%3DArchitects%2BDaughter;fillColor=#d5e8d4;strokeColor=#82b366;fillStyle=solid;" vertex="1" parent="1">
          <mxGeometry x="860" y="1450" width="80" height="30" as="geometry" />
        </mxCell>
        <mxCell id="wwri12M4P4pAhS-KatHB-85" value="function" style="rounded=0;whiteSpace=wrap;html=1;sketch=1;fontFamily=Architects Daughter;fontSource=https%3A%2F%2Ffonts.googleapis.com%2Fcss%3Ffamily%3DArchitects%2BDaughter;fillColor=#d5e8d4;strokeColor=#82b366;fillStyle=solid;" vertex="1" parent="1">
          <mxGeometry x="860" y="1480" width="80" height="30" as="geometry" />
        </mxCell>
        <mxCell id="wwri12M4P4pAhS-KatHB-86" value="function" style="rounded=0;whiteSpace=wrap;html=1;sketch=1;fontFamily=Architects Daughter;fontSource=https%3A%2F%2Ffonts.googleapis.com%2Fcss%3Ffamily%3DArchitects%2BDaughter;fillColor=#d5e8d4;strokeColor=#82b366;fillStyle=solid;" vertex="1" parent="1">
          <mxGeometry x="860" y="1510" width="80" height="30" as="geometry" />
        </mxCell>
        <mxCell id="wwri12M4P4pAhS-KatHB-87" value="_max_len" style="rounded=0;whiteSpace=wrap;html=1;sketch=1;fontFamily=Architects Daughter;fontSource=https%3A%2F%2Ffonts.googleapis.com%2Fcss%3Ffamily%3DArchitects%2BDaughter;" vertex="1" parent="1">
          <mxGeometry x="780" y="1540" width="80" height="30" as="geometry" />
        </mxCell>
        <mxCell id="wwri12M4P4pAhS-KatHB-88" value="Int" style="rounded=0;whiteSpace=wrap;html=1;sketch=1;fontFamily=Architects Daughter;fontSource=https%3A%2F%2Ffonts.googleapis.com%2Fcss%3Ffamily%3DArchitects%2BDaughter;fillColor=#f8cecc;strokeColor=#b85450;" vertex="1" parent="1">
          <mxGeometry x="860" y="1540" width="80" height="30" as="geometry" />
        </mxCell>
      </root>
    </mxGraphModel>
  </diagram>
</mxfile>
